<?xml version="1.0" encoding="UTF-8" standalone="no"?>
<svg version="1.1" width="481" height="481" viewBox="0 0 481 481" xmlns="http://www.w3.org/2000/svg">
  <rect fill="white" x="0" y="0" width="481" height="481" />
  <rect fill="black" x="0" y="0" width="13" height="13" />
  <rect fill="black" x="13" y="0" width="13" height="13" />
  <rect fill="black" x="26" y="0" width="13" height="13" />
  <rect fill="black" x="39" y="0" width="13" height="13" />
  <rect fill="black" x="52" y="0" width="13" height="13" />
  <rect fill="black" x="65" y="0" width="13" height="13" />
  <rect fill="black" x="78" y="0" width="13" height="13" />
  <rect fill="black" x="104" y="0" width="13" height="13" />
  <rect fill="black" x="130" y="0" width="13" height="13" />
  <rect fill="black" x="182" y="0" width="13" height="13" />
  <rect fill="black" x="208" y="0" width="13" height="13" />
  <rect fill="black" x="234" y="0" width="13" height="13" />
  <rect fill="black" x="247" y="0" width="13" height="13" />
  <rect fill="black" x="260" y="0" width="13" height="13" />
  <rect fill="black" x="273" y="0" width="13" height="13" />
  <rect fill="black" x="286" y="0" width="13" height="13" />
  <rect fill="black" x="299" y="0" width="13" height="13" />
  <rect fill="black" x="312" y="0" width="13" height="13" />
  <rect fill="black" x="364" y="0" width="13" height="13" />
  <rect fill="black" x="390" y="0" width="13" height="13" />
  <rect fill="black" x="403" y="0" width="13" height="13" />
  <rect fill="black" x="416" y="0" width="13" height="13" />
  <rect fill="black" x="429" y="0" width="13" height="13" />
  <rect fill="black" x="442" y="0" width="13" height="13" />
  <rect fill="black" x="455" y="0" width="13" height="13" />
  <rect fill="black" x="468" y="0" width="13" height="13" />
  <rect fill="black" x="0" y="13" width="13" height="13" />
  <rect fill="black" x="78" y="13" width="13" height="13" />
  <rect fill="black" x="104" y="13" width="13" height="13" />
  <rect fill="black" x="117" y="13" width="13" height="13" />
  <rect fill="black" x="130" y="13" width="13" height="13" />
  <rect fill="black" x="156" y="13" width="13" height="13" />
  <rect fill="black" x="195" y="13" width="13" height="13" />
  <rect fill="black" x="221" y="13" width="13" height="13" />
  <rect fill="black" x="234" y="13" width="13" height="13" />
  <rect fill="black" x="260" y="13" width="13" height="13" />
  <rect fill="black" x="299" y="13" width="13" height="13" />
  <rect fill="black" x="312" y="13" width="13" height="13" />
  <rect fill="black" x="351" y="13" width="13" height="13" />
  <rect fill="black" x="390" y="13" width="13" height="13" />
  <rect fill="black" x="468" y="13" width="13" height="13" />
  <rect fill="black" x="0" y="26" width="13" height="13" />
  <rect fill="black" x="26" y="26" width="13" height="13" />
  <rect fill="black" x="39" y="26" width="13" height="13" />
  <rect fill="black" x="52" y="26" width="13" height="13" />
  <rect fill="black" x="78" y="26" width="13" height="13" />
  <rect fill="black" x="104" y="26" width="13" height="13" />
  <rect fill="black" x="117" y="26" width="13" height="13" />
  <rect fill="black" x="143" y="26" width="13" height="13" />
  <rect fill="black" x="169" y="26" width="13" height="13" />
  <rect fill="black" x="195" y="26" width="13" height="13" />
  <rect fill="black" x="208" y="26" width="13" height="13" />
  <rect fill="black" x="234" y="26" width="13" height="13" />
  <rect fill="black" x="247" y="26" width="13" height="13" />
  <rect fill="black" x="273" y="26" width="13" height="13" />
  <rect fill="black" x="286" y="26" width="13" height="13" />
  <rect fill="black" x="338" y="26" width="13" height="13" />
  <rect fill="black" x="364" y="26" width="13" height="13" />
  <rect fill="black" x="390" y="26" width="13" height="13" />
  <rect fill="black" x="416" y="26" width="13" height="13" />
  <rect fill="black" x="429" y="26" width="13" height="13" />
  <rect fill="black" x="442" y="26" width="13" height="13" />
  <rect fill="black" x="468" y="26" width="13" height="13" />
  <rect fill="black" x="0" y="39" width="13" height="13" />
  <rect fill="black" x="26" y="39" width="13" height="13" />
  <rect fill="black" x="39" y="39" width="13" height="13" />
  <rect fill="black" x="52" y="39" width="13" height="13" />
  <rect fill="black" x="78" y="39" width="13" height="13" />
  <rect fill="black" x="117" y="39" width="13" height="13" />
  <rect fill="black" x="143" y="39" width="13" height="13" />
  <rect fill="black" x="169" y="39" width="13" height="13" />
  <rect fill="black" x="208" y="39" width="13" height="13" />
  <rect fill="black" x="221" y="39" width="13" height="13" />
  <rect fill="black" x="247" y="39" width="13" height="13" />
  <rect fill="black" x="273" y="39" width="13" height="13" />
  <rect fill="black" x="286" y="39" width="13" height="13" />
  <rect fill="black" x="312" y="39" width="13" height="13" />
  <rect fill="black" x="325" y="39" width="13" height="13" />
  <rect fill="black" x="338" y="39" width="13" height="13" />
  <rect fill="black" x="390" y="39" width="13" height="13" />
  <rect fill="black" x="416" y="39" width="13" height="13" />
  <rect fill="black" x="429" y="39" width="13" height="13" />
  <rect fill="black" x="442" y="39" width="13" height="13" />
  <rect fill="black" x="468" y="39" width="13" height="13" />
  <rect fill="black" x="0" y="52" width="13" height="13" />
  <rect fill="black" x="26" y="52" width="13" height="13" />
  <rect fill="black" x="39" y="52" width="13" height="13" />
  <rect fill="black" x="52" y="52" width="13" height="13" />
  <rect fill="black" x="78" y="52" width="13" height="13" />
  <rect fill="black" x="130" y="52" width="13" height="13" />
  <rect fill="black" x="143" y="52" width="13" height="13" />
  <rect fill="black" x="156" y="52" width="13" height="13" />
  <rect fill="black" x="182" y="52" width="13" height="13" />
  <rect fill="black" x="195" y="52" width="13" height="13" />
  <rect fill="black" x="247" y="52" width="13" height="13" />
  <rect fill="black" x="260" y="52" width="13" height="13" />
  <rect fill="black" x="299" y="52" width="13" height="13" />
  <rect fill="black" x="325" y="52" width="13" height="13" />
  <rect fill="black" x="338" y="52" width="13" height="13" />
  <rect fill="black" x="390" y="52" width="13" height="13" />
  <rect fill="black" x="416" y="52" width="13" height="13" />
  <rect fill="black" x="429" y="52" width="13" height="13" />
  <rect fill="black" x="442" y="52" width="13" height="13" />
  <rect fill="black" x="468" y="52" width="13" height="13" />
  <rect fill="black" x="0" y="65" width="13" height="13" />
  <rect fill="black" x="78" y="65" width="13" height="13" />
  <rect fill="black" x="104" y="65" width="13" height="13" />
  <rect fill="black" x="143" y="65" width="13" height="13" />
  <rect fill="black" x="169" y="65" width="13" height="13" />
  <rect fill="black" x="182" y="65" width="13" height="13" />
  <rect fill="black" x="195" y="65" width="13" height="13" />
  <rect fill="black" x="208" y="65" width="13" height="13" />
  <rect fill="black" x="234" y="65" width="13" height="13" />
  <rect fill="black" x="247" y="65" width="13" height="13" />
  <rect fill="black" x="260" y="65" width="13" height="13" />
  <rect fill="black" x="286" y="65" width="13" height="13" />
  <rect fill="black" x="312" y="65" width="13" height="13" />
  <rect fill="black" x="351" y="65" width="13" height="13" />
  <rect fill="black" x="364" y="65" width="13" height="13" />
  <rect fill="black" x="390" y="65" width="13" height="13" />
  <rect fill="black" x="468" y="65" width="13" height="13" />
  <rect fill="black" x="0" y="78" width="13" height="13" />
  <rect fill="black" x="13" y="78" width="13" height="13" />
  <rect fill="black" x="26" y="78" width="13" height="13" />
  <rect fill="black" x="39" y="78" width="13" height="13" />
  <rect fill="black" x="52" y="78" width="13" height="13" />
  <rect fill="black" x="65" y="78" width="13" height="13" />
  <rect fill="black" x="78" y="78" width="13" height="13" />
  <rect fill="black" x="104" y="78" width="13" height="13" />
  <rect fill="black" x="130" y="78" width="13" height="13" />
  <rect fill="black" x="156" y="78" width="13" height="13" />
  <rect fill="black" x="182" y="78" width="13" height="13" />
  <rect fill="black" x="208" y="78" width="13" height="13" />
  <rect fill="black" x="234" y="78" width="13" height="13" />
  <rect fill="black" x="260" y="78" width="13" height="13" />
  <rect fill="black" x="286" y="78" width="13" height="13" />
  <rect fill="black" x="312" y="78" width="13" height="13" />
  <rect fill="black" x="338" y="78" width="13" height="13" />
  <rect fill="black" x="364" y="78" width="13" height="13" />
  <rect fill="black" x="390" y="78" width="13" height="13" />
  <rect fill="black" x="403" y="78" width="13" height="13" />
  <rect fill="black" x="416" y="78" width="13" height="13" />
  <rect fill="black" x="429" y="78" width="13" height="13" />
  <rect fill="black" x="442" y="78" width="13" height="13" />
  <rect fill="black" x="455" y="78" width="13" height="13" />
  <rect fill="black" x="468" y="78" width="13" height="13" />
  <rect fill="black" x="104" y="91" width="13" height="13" />
  <rect fill="black" x="130" y="91" width="13" height="13" />
  <rect fill="black" x="156" y="91" width="13" height="13" />
  <rect fill="black" x="169" y="91" width="13" height="13" />
  <rect fill="black" x="273" y="91" width="13" height="13" />
  <rect fill="black" x="299" y="91" width="13" height="13" />
  <rect fill="black" x="312" y="91" width="13" height="13" />
  <rect fill="black" x="338" y="91" width="13" height="13" />
  <rect fill="black" x="364" y="91" width="13" height="13" />
  <rect fill="black" x="26" y="104" width="13" height="13" />
  <rect fill="black" x="39" y="104" width="13" height="13" />
  <rect fill="black" x="52" y="104" width="13" height="13" />
  <rect fill="black" x="78" y="104" width="13" height="13" />
  <rect fill="black" x="104" y="104" width="13" height="13" />
  <rect fill="black" x="143" y="104" width="13" height="13" />
  <rect fill="black" x="169" y="104" width="13" height="13" />
  <rect fill="black" x="182" y="104" width="13" height="13" />
  <rect fill="black" x="195" y="104" width="13" height="13" />
  <rect fill="black" x="234" y="104" width="13" height="13" />
  <rect fill="black" x="247" y="104" width="13" height="13" />
  <rect fill="black" x="299" y="104" width="13" height="13" />
  <rect fill="black" x="325" y="104" width="13" height="13" />
  <rect fill="black" x="338" y="104" width="13" height="13" />
  <rect fill="black" x="364" y="104" width="13" height="13" />
  <rect fill="black" x="377" y="104" width="13" height="13" />
  <rect fill="black" x="390" y="104" width="13" height="13" />
  <rect fill="black" x="403" y="104" width="13" height="13" />
  <rect fill="black" x="442" y="104" width="13" height="13" />
  <rect fill="black" x="455" y="104" width="13" height="13" />
  <rect fill="black" x="468" y="104" width="13" height="13" />
  <rect fill="black" x="0" y="117" width="13" height="13" />
  <rect fill="black" x="13" y="117" width="13" height="13" />
  <rect fill="black" x="26" y="117" width="13" height="13" />
  <rect fill="black" x="52" y="117" width="13" height="13" />
  <rect fill="black" x="104" y="117" width="13" height="13" />
  <rect fill="black" x="117" y="117" width="13" height="13" />
  <rect fill="black" x="130" y="117" width="13" height="13" />
  <rect fill="black" x="143" y="117" width="13" height="13" />
  <rect fill="black" x="156" y="117" width="13" height="13" />
  <rect fill="black" x="169" y="117" width="13" height="13" />
  <rect fill="black" x="260" y="117" width="13" height="13" />
  <rect fill="black" x="286" y="117" width="13" height="13" />
  <rect fill="black" x="325" y="117" width="13" height="13" />
  <rect fill="black" x="364" y="117" width="13" height="13" />
  <rect fill="black" x="377" y="117" width="13" height="13" />
  <rect fill="black" x="13" y="130" width="13" height="13" />
  <rect fill="black" x="26" y="130" width="13" height="13" />
  <rect fill="black" x="52" y="130" width="13" height="13" />
  <rect fill="black" x="78" y="130" width="13" height="13" />
  <rect fill="black" x="104" y="130" width="13" height="13" />
  <rect fill="black" x="117" y="130" width="13" height="13" />
  <rect fill="black" x="143" y="130" width="13" height="13" />
  <rect fill="black" x="208" y="130" width="13" height="13" />
  <rect fill="black" x="234" y="130" width="13" height="13" />
  <rect fill="black" x="247" y="130" width="13" height="13" />
  <rect fill="black" x="260" y="130" width="13" height="13" />
  <rect fill="black" x="273" y="130" width="13" height="13" />
  <rect fill="black" x="286" y="130" width="13" height="13" />
  <rect fill="black" x="299" y="130" width="13" height="13" />
  <rect fill="black" x="325" y="130" width="13" height="13" />
  <rect fill="black" x="338" y="130" width="13" height="13" />
  <rect fill="black" x="351" y="130" width="13" height="13" />
  <rect fill="black" x="390" y="130" width="13" height="13" />
  <rect fill="black" x="403" y="130" width="13" height="13" />
  <rect fill="black" x="455" y="130" width="13" height="13" />
  <rect fill="black" x="468" y="130" width="13" height="13" />
  <rect fill="black" x="13" y="143" width="13" height="13" />
  <rect fill="black" x="52" y="143" width="13" height="13" />
  <rect fill="black" x="104" y="143" width="13" height="13" />
  <rect fill="black" x="117" y="143" width="13" height="13" />
  <rect fill="black" x="169" y="143" width="13" height="13" />
  <rect fill="black" x="182" y="143" width="13" height="13" />
  <rect fill="black" x="195" y="143" width="13" height="13" />
  <rect fill="black" x="221" y="143" width="13" height="13" />
  <rect fill="black" x="286" y="143" width="13" height="13" />
  <rect fill="black" x="299" y="143" width="13" height="13" />
  <rect fill="black" x="338" y="143" width="13" height="13" />
  <rect fill="black" x="351" y="143" width="13" height="13" />
  <rect fill="black" x="364" y="143" width="13" height="13" />
  <rect fill="black" x="390" y="143" width="13" height="13" />
  <rect fill="black" x="403" y="143" width="13" height="13" />
  <rect fill="black" x="455" y="143" width="13" height="13" />
  <rect fill="black" x="26" y="156" width="13" height="13" />
  <rect fill="black" x="78" y="156" width="13" height="13" />
  <rect fill="black" x="91" y="156" width="13" height="13" />
  <rect fill="black" x="104" y="156" width="13" height="13" />
  <rect fill="black" x="117" y="156" width="13" height="13" />
  <rect fill="black" x="156" y="156" width="13" height="13" />
  <rect fill="black" x="247" y="156" width="13" height="13" style="fill:#666666" />
  <rect fill="black" x="260" y="156" width="13" height="13" style="fill:#666666" />
  <rect fill="black" x="286" y="156" width="13" height="13" />
  <rect fill="black" x="299" y="156" width="13" height="13" />
  <rect fill="black" x="312" y="156" width="13" height="13" />
  <rect fill="black" x="325" y="156" width="13" height="13" />
  <rect fill="black" x="338" y="156" width="13" height="13" />
  <rect fill="black" x="377" y="156" width="13" height="13" />
  <rect fill="black" x="390" y="156" width="13" height="13" />
  <rect fill="black" x="416" y="156" width="13" height="13" />
  <rect fill="black" x="442" y="156" width="13" height="13" />
  <rect fill="black" x="455" y="156" width="13" height="13" />
  <rect fill="black" x="13" y="169" width="13" height="13" />
  <rect fill="black" x="26" y="169" width="13" height="13" />
  <rect fill="black" x="65" y="169" width="13" height="13" />
  <rect fill="black" x="91" y="169" width="13" height="13" />
  <rect fill="black" x="117" y="169" width="13" height="13" />
  <rect fill="black" x="182" y="169" width="13" height="13" style="fill:#666666" />
  <rect fill="black" x="195" y="169" width="13" height="13" style="fill:#666666" />
  <rect fill="black" x="260" y="169" width="13" height="13" style="fill:#666666" />
  <rect fill="black" x="312" y="169" width="13" height="13" />
  <rect fill="black" x="325" y="169" width="13" height="13" />
  <rect fill="black" x="338" y="169" width="13" height="13" />
  <rect fill="black" x="364" y="169" width="13" height="13" />
  <rect fill="black" x="377" y="169" width="13" height="13" />
  <rect fill="black" x="403" y="169" width="13" height="13" />
  <rect fill="black" x="429" y="169" width="13" height="13" />
  <rect fill="black" x="442" y="169" width="13" height="13" />
  <rect fill="black" x="0" y="182" width="13" height="13" />
  <rect fill="black" x="39" y="182" width="13" height="13" />
  <rect fill="black" x="65" y="182" width="13" height="13" />
  <rect fill="black" x="78" y="182" width="13" height="13" />
  <rect fill="black" x="195" y="182" width="13" height="13" style="fill:#d40000" />
  <rect fill="black" x="208" y="182" width="13" height="13" style="fill:#d40000" />
  <rect fill="black" x="221" y="182" width="13" height="13" style="fill:#d40000" />
  <rect fill="black" x="234" y="182" width="13" height="13" style="fill:#d40000" />
  <rect fill="black" x="247" y="182" width="13" height="13" style="fill:#d40000" />
  <rect fill="black" x="260" y="182" width="13" height="13" style="fill:#d40000" />
  <rect fill="black" x="325" y="182" width="13" height="13" />
  <rect fill="black" x="338" y="182" width="13" height="13" />
  <rect fill="black" x="351" y="182" width="13" height="13" />
  <rect fill="black" x="390" y="182" width="13" height="13" />
  <rect fill="black" x="429" y="182" width="13" height="13" />
  <rect fill="black" x="468" y="182" width="13" height="13" />
  <rect fill="black" x="26" y="195" width="13" height="13" />
  <rect fill="black" x="65" y="195" width="13" height="13" />
  <rect fill="black" x="143" y="195" width="13" height="13" style="fill:#666666" />
  <rect fill="black" x="156" y="195" width="13" height="13" style="fill:#666666" />
  <rect fill="black" x="169" y="195" width="13" height="13" style="fill:#666666" />
  <rect fill="black" x="195" y="195" width="13" height="13" style="fill:#d40000" />
  <rect fill="black" x="247" y="195" width="13" height="13" style="fill:#d40000" />
  <rect fill="black" x="260" y="195" width="13" height="13" style="fill:#d40000" />
  <rect fill="black" x="273" y="195" width="13" height="13" style="fill:#666666" />
  <rect fill="black" x="286" y="195" width="13" height="13" style="fill:#666666" />
  <rect fill="black" x="299" y="195" width="13" height="13" style="fill:#666666" />
  <rect fill="black" x="338" y="195" width="13" height="13" />
  <rect fill="black" x="351" y="195" width="13" height="13" />
  <rect fill="black" x="364" y="195" width="13" height="13" />
  <rect fill="black" x="403" y="195" width="13" height="13" />
  <rect fill="black" x="416" y="195" width="13" height="13" />
  <rect fill="black" x="455" y="195" width="13" height="13" />
  <rect fill="black" x="0" y="208" width="13" height="13" />
  <rect fill="black" x="13" y="208" width="13" height="13" />
  <rect fill="black" x="26" y="208" width="13" height="13" />
  <rect fill="black" x="39" y="208" width="13" height="13" />
  <rect fill="black" x="52" y="208" width="13" height="13" />
  <rect fill="black" x="65" y="208" width="13" height="13" />
  <rect fill="black" x="78" y="208" width="13" height="13" />
  <rect fill="black" x="130" y="208" width="13" height="13" style="fill:#666666" />
  <rect fill="black" x="182" y="208" width="13" height="13" style="fill:#d40000" />
  <rect fill="black" x="208" y="208" width="13" height="13" style="fill:#d40000" />
  <rect fill="black" x="234" y="208" width="13" height="13" style="fill:#d40000" />
  <rect fill="black" x="260" y="208" width="13" height="13" style="fill:#d40000" />
  <rect fill="black" x="312" y="208" width="13" height="13" style="fill:#666666" />
  <rect fill="black" x="351" y="208" width="13" height="13" />
  <rect fill="black" x="377" y="208" width="13" height="13" />
  <rect fill="black" x="390" y="208" width="13" height="13" />
  <rect fill="black" x="416" y="208" width="13" height="13" />
  <rect fill="black" x="442" y="208" width="13" height="13" />
  <rect fill="black" x="455" y="208" width="13" height="13" />
  <rect fill="black" x="468" y="208" width="13" height="13" />
  <rect fill="black" x="0" y="221" width="13" height="13" />
  <rect fill="black" x="13" y="221" width="13" height="13" />
  <rect fill="black" x="26" y="221" width="13" height="13" />
  <rect fill="black" x="117" y="221" width="13" height="13" style="fill:#666666" />
  <rect fill="black" x="169" y="221" width="13" height="13" style="fill:#d40000" />
  <rect fill="black" x="195" y="221" width="13" height="13" style="fill:#666666" />
  <rect fill="black" x="221" y="221" width="13" height="13" style="fill:#d40000" />
  <rect fill="black" x="247" y="221" width="13" height="13" style="fill:#666666" />
  <rect fill="black" x="273" y="221" width="13" height="13" style="fill:#d40000" />
  <rect fill="black" x="325" y="221" width="13" height="13" style="fill:#666666" />
  <rect fill="black" x="377" y="221" width="13" height="13" />
  <rect fill="black" x="403" y="221" width="13" height="13" />
  <rect fill="black" x="442" y="221" width="13" height="13" />
  <rect fill="black" x="0" y="234" width="13" height="13" />
  <rect fill="black" x="26" y="234" width="13" height="13" />
  <rect fill="black" x="39" y="234" width="13" height="13" />
  <rect fill="black" x="52" y="234" width="13" height="13" />
  <rect fill="black" x="78" y="234" width="13" height="13" />
  <rect fill="black" x="91" y="234" width="13" height="13" />
  <rect fill="black" x="117" y="234" width="13" height="13" style="fill:#666666" />
  <rect fill="black" x="156" y="234" width="13" height="13" style="fill:#d40000" />
  <rect fill="black" x="169" y="234" width="13" height="13" style="fill:#d40000" />
  <rect fill="black" x="182" y="234" width="13" height="13" style="fill:#d40000" />
  <rect fill="black" x="195" y="234" width="13" height="13" style="fill:#d40000" />
  <rect fill="black" x="208" y="234" width="13" height="13" style="fill:#d40000" />
  <rect fill="black" x="221" y="234" width="13" height="13" style="fill:#d40000" />
  <rect fill="black" x="247" y="234" width="13" height="13" style="fill:#666666" />
  <rect fill="black" x="286" y="234" width="13" height="13" style="fill:#d40000" />
  <rect fill="black" x="325" y="234" width="13" height="13" style="fill:#666666" />
  <rect fill="black" x="351" y="234" width="13" height="13" />
  <rect fill="black" x="364" y="234" width="13" height="13" />
  <rect fill="black" x="377" y="234" width="13" height="13" />
  <rect fill="black" x="390" y="234" width="13" height="13" />
  <rect fill="black" x="403" y="234" width="13" height="13" />
  <rect fill="black" x="416" y="234" width="13" height="13" />
  <rect fill="black" x="429" y="234" width="13" height="13" />
  <rect fill="black" x="442" y="234" width="13" height="13" />
  <rect fill="black" x="455" y="234" width="13" height="13" />
  <rect fill="black" x="468" y="234" width="13" height="13" />
  <rect fill="black" x="13" y="247" width="13" height="13" />
  <rect fill="black" x="39" y="247" width="13" height="13" />
  <rect fill="black" x="117" y="247" width="13" height="13" style="fill:#666666" />
  <rect fill="black" x="195" y="247" width="13" height="13" style="fill:#666666" />
  <rect fill="black" x="247" y="247" width="13" height="13" style="fill:#666666" />
  <rect fill="black" x="325" y="247" width="13" height="13" style="fill:#666666" />
  <rect fill="black" x="351" y="247" width="13" height="13" />
  <rect fill="black" x="377" y="247" width="13" height="13" />
  <rect fill="black" x="390" y="247" width="13" height="13" />
  <rect fill="black" x="455" y="247" width="13" height="13" />
  <rect fill="black" x="0" y="260" width="13" height="13" />
  <rect fill="black" x="39" y="260" width="13" height="13" />
  <rect fill="black" x="52" y="260" width="13" height="13" />
  <rect fill="black" x="78" y="260" width="13" height="13" />
  <rect fill="black" x="91" y="260" width="13" height="13" />
  <rect fill="black" x="104" y="260" width="13" height="13" />
  <rect fill="black" x="130" y="260" width="13" height="13" style="fill:#666666" />
  <rect fill="black" x="182" y="260" width="13" height="13" style="fill:#666666" />
  <rect fill="black" x="260" y="260" width="13" height="13" style="fill:#666666" />
  <rect fill="black" x="312" y="260" width="13" height="13" style="fill:#666666" />
  <rect fill="black" x="351" y="260" width="13" height="13" />
  <rect fill="black" x="377" y="260" width="13" height="13" />
  <rect fill="black" x="390" y="260" width="13" height="13" />
  <rect fill="black" x="403" y="260" width="13" height="13" />
  <rect fill="black" x="416" y="260" width="13" height="13" />
  <rect fill="black" x="429" y="260" width="13" height="13" />
  <rect fill="black" x="442" y="260" width="13" height="13" />
  <rect fill="black" x="26" y="273" width="13" height="13" />
  <rect fill="black" x="65" y="273" width="13" height="13" />
  <rect fill="black" x="117" y="273" width="13" height="13" />
  <rect fill="black" x="143" y="273" width="13" height="13" style="fill:#666666" />
  <rect fill="black" x="156" y="273" width="13" height="13" style="fill:#666666" />
  <rect fill="black" x="169" y="273" width="13" height="13" style="fill:#666666" />
  <rect fill="black" x="208" y="273" width="13" height="13" />
  <rect fill="black" x="234" y="273" width="13" height="13" />
  <rect fill="black" x="247" y="273" width="13" height="13" />
  <rect fill="black" x="273" y="273" width="13" height="13" style="fill:#666666" />
  <rect fill="black" x="286" y="273" width="13" height="13" style="fill:#666666" />
  <rect fill="black" x="299" y="273" width="13" height="13" style="fill:#666666" />
  <rect fill="black" x="338" y="273" width="13" height="13" />
  <rect fill="black" x="403" y="273" width="13" height="13" />
  <rect fill="black" x="429" y="273" width="13" height="13" />
  <rect fill="black" x="455" y="273" width="13" height="13" />
  <rect fill="black" x="0" y="286" width="13" height="13" />
  <rect fill="black" x="13" y="286" width="13" height="13" />
  <rect fill="black" x="39" y="286" width="13" height="13" />
  <rect fill="black" x="52" y="286" width="13" height="13" />
  <rect fill="black" x="65" y="286" width="13" height="13" />
  <rect fill="black" x="78" y="286" width="13" height="13" />
  <rect fill="black" x="91" y="286" width="13" height="13" />
  <rect fill="black" x="117" y="286" width="13" height="13" />
  <rect fill="black" x="130" y="286" width="13" height="13" />
  <rect fill="black" x="156" y="286" width="13" height="13" />
  <rect fill="black" x="169" y="286" width="13" height="13" />
  <rect fill="black" x="208" y="286" width="13" height="13" />
  <rect fill="black" x="260" y="286" width="13" height="13" />
  <rect fill="black" x="273" y="286" width="13" height="13" />
  <rect fill="black" x="286" y="286" width="13" height="13" />
  <rect fill="black" x="299" y="286" width="13" height="13" />
  <rect fill="black" x="312" y="286" width="13" height="13" />
  <rect fill="black" x="338" y="286" width="13" height="13" />
  <rect fill="black" x="351" y="286" width="13" height="13" />
  <rect fill="black" x="377" y="286" width="13" height="13" />
  <rect fill="black" x="442" y="286" width="13" height="13" />
  <rect fill="black" x="455" y="286" width="13" height="13" />
  <rect fill="black" x="468" y="286" width="13" height="13" />
  <rect fill="black" x="0" y="299" width="13" height="13" />
  <rect fill="black" x="26" y="299" width="13" height="13" />
  <rect fill="black" x="52" y="299" width="13" height="13" />
  <rect fill="black" x="91" y="299" width="13" height="13" />
  <rect fill="black" x="117" y="299" width="13" height="13" />
  <rect fill="black" x="195" y="299" width="13" height="13" />
  <rect fill="black" x="208" y="299" width="13" height="13" />
  <rect fill="black" x="221" y="299" width="13" height="13" />
  <rect fill="black" x="234" y="299" width="13" height="13" />
  <rect fill="black" x="247" y="299" width="13" height="13" />
  <rect fill="black" x="273" y="299" width="13" height="13" />
  <rect fill="black" x="286" y="299" width="13" height="13" />
  <rect fill="black" x="338" y="299" width="13" height="13" />
  <rect fill="black" x="377" y="299" width="13" height="13" />
  <rect fill="black" x="390" y="299" width="13" height="13" />
  <rect fill="black" x="403" y="299" width="13" height="13" />
  <rect fill="black" x="455" y="299" width="13" height="13" />
  <rect fill="black" x="0" y="312" width="13" height="13" />
  <rect fill="black" x="13" y="312" width="13" height="13" />
  <rect fill="black" x="26" y="312" width="13" height="13" />
  <rect fill="black" x="39" y="312" width="13" height="13" />
  <rect fill="black" x="65" y="312" width="13" height="13" />
  <rect fill="black" x="78" y="312" width="13" height="13" />
  <rect fill="black" x="104" y="312" width="13" height="13" />
  <rect fill="black" x="130" y="312" width="13" height="13" />
  <rect fill="black" x="143" y="312" width="13" height="13" />
  <rect fill="black" x="195" y="312" width="13" height="13" />
  <rect fill="black" x="260" y="312" width="13" height="13" />
  <rect fill="black" x="299" y="312" width="13" height="13" />
  <rect fill="black" x="312" y="312" width="13" height="13" />
  <rect fill="black" x="325" y="312" width="13" height="13" />
  <rect fill="black" x="338" y="312" width="13" height="13" />
  <rect fill="black" x="377" y="312" width="13" height="13" />
  <rect fill="black" x="390" y="312" width="13" height="13" />
  <rect fill="black" x="416" y="312" width="13" height="13" />
  <rect fill="black" x="429" y="312" width="13" height="13" />
  <rect fill="black" x="442" y="312" width="13" height="13" />
  <rect fill="black" x="455" y="312" width="13" height="13" />
  <rect fill="black" x="0" y="325" width="13" height="13" />
  <rect fill="black" x="13" y="325" width="13" height="13" />
  <rect fill="black" x="65" y="325" width="13" height="13" />
  <rect fill="black" x="130" y="325" width="13" height="13" />
  <rect fill="black" x="143" y="325" width="13" height="13" />
  <rect fill="black" x="169" y="325" width="13" height="13" />
  <rect fill="black" x="221" y="325" width="13" height="13" />
  <rect fill="black" x="234" y="325" width="13" height="13" />
  <rect fill="black" x="247" y="325" width="13" height="13" />
  <rect fill="black" x="286" y="325" width="13" height="13" />
  <rect fill="black" x="338" y="325" width="13" height="13" />
  <rect fill="black" x="364" y="325" width="13" height="13" />
  <rect fill="black" x="403" y="325" width="13" height="13" />
  <rect fill="black" x="429" y="325" width="13" height="13" />
  <rect fill="black" x="0" y="338" width="13" height="13" />
  <rect fill="black" x="26" y="338" width="13" height="13" />
  <rect fill="black" x="52" y="338" width="13" height="13" />
  <rect fill="black" x="65" y="338" width="13" height="13" />
  <rect fill="black" x="78" y="338" width="13" height="13" />
  <rect fill="black" x="104" y="338" width="13" height="13" />
  <rect fill="black" x="143" y="338" width="13" height="13" />
  <rect fill="black" x="169" y="338" width="13" height="13" />
  <rect fill="black" x="182" y="338" width="13" height="13" />
  <rect fill="black" x="195" y="338" width="13" height="13" />
  <rect fill="black" x="247" y="338" width="13" height="13" />
  <rect fill="black" x="286" y="338" width="13" height="13" />
  <rect fill="black" x="299" y="338" width="13" height="13" />
  <rect fill="black" x="312" y="338" width="13" height="13" />
  <rect fill="black" x="325" y="338" width="13" height="13" />
  <rect fill="black" x="338" y="338" width="13" height="13" />
  <rect fill="black" x="351" y="338" width="13" height="13" />
  <rect fill="black" x="390" y="338" width="13" height="13" />
  <rect fill="black" x="403" y="338" width="13" height="13" />
  <rect fill="black" x="416" y="338" width="13" height="13" />
  <rect fill="black" x="429" y="338" width="13" height="13" />
  <rect fill="black" x="442" y="338" width="13" height="13" />
  <rect fill="black" x="468" y="338" width="13" height="13" />
  <rect fill="black" x="0" y="351" width="13" height="13" />
  <rect fill="black" x="39" y="351" width="13" height="13" />
  <rect fill="black" x="52" y="351" width="13" height="13" />
  <rect fill="black" x="65" y="351" width="13" height="13" />
  <rect fill="black" x="91" y="351" width="13" height="13" />
  <rect fill="black" x="117" y="351" width="13" height="13" />
  <rect fill="black" x="130" y="351" width="13" height="13" />
  <rect fill="black" x="169" y="351" width="13" height="13" />
  <rect fill="black" x="195" y="351" width="13" height="13" />
  <rect fill="black" x="221" y="351" width="13" height="13" />
  <rect fill="black" x="273" y="351" width="13" height="13" />
  <rect fill="black" x="299" y="351" width="13" height="13" />
  <rect fill="black" x="338" y="351" width="13" height="13" />
  <rect fill="black" x="364" y="351" width="13" height="13" />
  <rect fill="black" x="377" y="351" width="13" height="13" />
  <rect fill="black" x="455" y="351" width="13" height="13" />
  <rect fill="black" x="0" y="364" width="13" height="13" />
  <rect fill="black" x="39" y="364" width="13" height="13" />
  <rect fill="black" x="52" y="364" width="13" height="13" />
  <rect fill="black" x="78" y="364" width="13" height="13" />
  <rect fill="black" x="117" y="364" width="13" height="13" />
  <rect fill="black" x="156" y="364" width="13" height="13" />
  <rect fill="black" x="208" y="364" width="13" height="13" />
  <rect fill="black" x="221" y="364" width="13" height="13" />
  <rect fill="black" x="234" y="364" width="13" height="13" />
  <rect fill="black" x="299" y="364" width="13" height="13" />
  <rect fill="black" x="312" y="364" width="13" height="13" />
  <rect fill="black" x="325" y="364" width="13" height="13" />
  <rect fill="black" x="338" y="364" width="13" height="13" />
  <rect fill="black" x="351" y="364" width="13" height="13" />
  <rect fill="black" x="364" y="364" width="13" height="13" />
  <rect fill="black" x="377" y="364" width="13" height="13" />
  <rect fill="black" x="390" y="364" width="13" height="13" />
  <rect fill="black" x="403" y="364" width="13" height="13" />
  <rect fill="black" x="416" y="364" width="13" height="13" />
  <rect fill="black" x="429" y="364" width="13" height="13" />
  <rect fill="black" x="442" y="364" width="13" height="13" />
  <rect fill="black" x="455" y="364" width="13" height="13" />
  <rect fill="black" x="468" y="364" width="13" height="13" />
  <rect fill="black" x="104" y="377" width="13" height="13" />
  <rect fill="black" x="117" y="377" width="13" height="13" />
  <rect fill="black" x="130" y="377" width="13" height="13" />
  <rect fill="black" x="143" y="377" width="13" height="13" />
  <rect fill="black" x="208" y="377" width="13" height="13" />
  <rect fill="black" x="221" y="377" width="13" height="13" />
  <rect fill="black" x="247" y="377" width="13" height="13" />
  <rect fill="black" x="260" y="377" width="13" height="13" />
  <rect fill="black" x="273" y="377" width="13" height="13" />
  <rect fill="black" x="299" y="377" width="13" height="13" />
  <rect fill="black" x="338" y="377" width="13" height="13" />
  <rect fill="black" x="351" y="377" width="13" height="13" />
  <rect fill="black" x="364" y="377" width="13" height="13" />
  <rect fill="black" x="416" y="377" width="13" height="13" />
  <rect fill="black" x="455" y="377" width="13" height="13" />
  <rect fill="black" x="0" y="390" width="13" height="13" />
  <rect fill="black" x="13" y="390" width="13" height="13" />
  <rect fill="black" x="26" y="390" width="13" height="13" />
  <rect fill="black" x="39" y="390" width="13" height="13" />
  <rect fill="black" x="52" y="390" width="13" height="13" />
  <rect fill="black" x="65" y="390" width="13" height="13" />
  <rect fill="black" x="78" y="390" width="13" height="13" />
  <rect fill="black" x="117" y="390" width="13" height="13" />
  <rect fill="black" x="130" y="390" width="13" height="13" />
  <rect fill="black" x="143" y="390" width="13" height="13" />
  <rect fill="black" x="182" y="390" width="13" height="13" />
  <rect fill="black" x="221" y="390" width="13" height="13" />
  <rect fill="black" x="234" y="390" width="13" height="13" />
  <rect fill="black" x="247" y="390" width="13" height="13" />
  <rect fill="black" x="260" y="390" width="13" height="13" />
  <rect fill="black" x="325" y="390" width="13" height="13" />
  <rect fill="black" x="364" y="390" width="13" height="13" />
  <rect fill="black" x="390" y="390" width="13" height="13" />
  <rect fill="black" x="416" y="390" width="13" height="13" />
  <rect fill="black" x="429" y="390" width="13" height="13" />
  <rect fill="black" x="455" y="390" width="13" height="13" />
  <rect fill="black" x="468" y="390" width="13" height="13" />
  <rect fill="black" x="0" y="403" width="13" height="13" />
  <rect fill="black" x="78" y="403" width="13" height="13" />
  <rect fill="black" x="117" y="403" width="13" height="13" />
  <rect fill="black" x="182" y="403" width="13" height="13" />
  <rect fill="black" x="195" y="403" width="13" height="13" />
  <rect fill="black" x="221" y="403" width="13" height="13" />
  <rect fill="black" x="260" y="403" width="13" height="13" />
  <rect fill="black" x="299" y="403" width="13" height="13" />
  <rect fill="black" x="312" y="403" width="13" height="13" />
  <rect fill="black" x="364" y="403" width="13" height="13" />
  <rect fill="black" x="416" y="403" width="13" height="13" />
  <rect fill="black" x="455" y="403" width="13" height="13" />
  <rect fill="black" x="0" y="416" width="13" height="13" />
  <rect fill="black" x="26" y="416" width="13" height="13" />
  <rect fill="black" x="39" y="416" width="13" height="13" />
  <rect fill="black" x="52" y="416" width="13" height="13" />
  <rect fill="black" x="78" y="416" width="13" height="13" />
  <rect fill="black" x="104" y="416" width="13" height="13" />
  <rect fill="black" x="117" y="416" width="13" height="13" />
  <rect fill="black" x="143" y="416" width="13" height="13" />
  <rect fill="black" x="156" y="416" width="13" height="13" />
  <rect fill="black" x="169" y="416" width="13" height="13" />
  <rect fill="black" x="208" y="416" width="13" height="13" />
  <rect fill="black" x="221" y="416" width="13" height="13" />
  <rect fill="black" x="234" y="416" width="13" height="13" />
  <rect fill="black" x="247" y="416" width="13" height="13" />
  <rect fill="black" x="286" y="416" width="13" height="13" />
  <rect fill="black" x="312" y="416" width="13" height="13" />
  <rect fill="black" x="325" y="416" width="13" height="13" />
  <rect fill="black" x="338" y="416" width="13" height="13" />
  <rect fill="black" x="351" y="416" width="13" height="13" />
  <rect fill="black" x="364" y="416" width="13" height="13" />
  <rect fill="black" x="377" y="416" width="13" height="13" />
  <rect fill="black" x="390" y="416" width="13" height="13" />
  <rect fill="black" x="403" y="416" width="13" height="13" />
  <rect fill="black" x="416" y="416" width="13" height="13" />
  <rect fill="black" x="442" y="416" width="13" height="13" />
  <rect fill="black" x="455" y="416" width="13" height="13" />
  <rect fill="black" x="468" y="416" width="13" height="13" />
  <rect fill="black" x="0" y="429" width="13" height="13" />
  <rect fill="black" x="26" y="429" width="13" height="13" />
  <rect fill="black" x="39" y="429" width="13" height="13" />
  <rect fill="black" x="52" y="429" width="13" height="13" />
  <rect fill="black" x="78" y="429" width="13" height="13" />
  <rect fill="black" x="104" y="429" width="13" height="13" />
  <rect fill="black" x="130" y="429" width="13" height="13" />
  <rect fill="black" x="143" y="429" width="13" height="13" />
  <rect fill="black" x="169" y="429" width="13" height="13" />
  <rect fill="black" x="195" y="429" width="13" height="13" />
  <rect fill="black" x="221" y="429" width="13" height="13" />
  <rect fill="black" x="234" y="429" width="13" height="13" />
  <rect fill="black" x="247" y="429" width="13" height="13" />
  <rect fill="black" x="273" y="429" width="13" height="13" />
  <rect fill="black" x="286" y="429" width="13" height="13" />
  <rect fill="black" x="312" y="429" width="13" height="13" />
  <rect fill="black" x="325" y="429" width="13" height="13" />
  <rect fill="black" x="351" y="429" width="13" height="13" />
  <rect fill="black" x="364" y="429" width="13" height="13" />
  <rect fill="black" x="390" y="429" width="13" height="13" />
  <rect fill="black" x="416" y="429" width="13" height="13" />
  <rect fill="black" x="429" y="429" width="13" height="13" />
  <rect fill="black" x="0" y="442" width="13" height="13" />
  <rect fill="black" x="26" y="442" width="13" height="13" />
  <rect fill="black" x="39" y="442" width="13" height="13" />
  <rect fill="black" x="52" y="442" width="13" height="13" />
  <rect fill="black" x="78" y="442" width="13" height="13" />
  <rect fill="black" x="104" y="442" width="13" height="13" />
  <rect fill="black" x="130" y="442" width="13" height="13" />
  <rect fill="black" x="143" y="442" width="13" height="13" />
  <rect fill="black" x="169" y="442" width="13" height="13" />
  <rect fill="black" x="182" y="442" width="13" height="13" />
  <rect fill="black" x="195" y="442" width="13" height="13" />
  <rect fill="black" x="234" y="442" width="13" height="13" />
  <rect fill="black" x="260" y="442" width="13" height="13" />
  <rect fill="black" x="273" y="442" width="13" height="13" />
  <rect fill="black" x="312" y="442" width="13" height="13" />
  <rect fill="black" x="325" y="442" width="13" height="13" />
  <rect fill="black" x="338" y="442" width="13" height="13" />
  <rect fill="black" x="364" y="442" width="13" height="13" />
  <rect fill="black" x="377" y="442" width="13" height="13" />
  <rect fill="black" x="403" y="442" width="13" height="13" />
  <rect fill="black" x="468" y="442" width="13" height="13" />
  <rect fill="black" x="0" y="455" width="13" height="13" />
  <rect fill="black" x="78" y="455" width="13" height="13" />
  <rect fill="black" x="169" y="455" width="13" height="13" />
  <rect fill="black" x="208" y="455" width="13" height="13" />
  <rect fill="black" x="234" y="455" width="13" height="13" />
  <rect fill="black" x="260" y="455" width="13" height="13" />
  <rect fill="black" x="273" y="455" width="13" height="13" />
  <rect fill="black" x="286" y="455" width="13" height="13" />
  <rect fill="black" x="299" y="455" width="13" height="13" />
  <rect fill="black" x="312" y="455" width="13" height="13" />
  <rect fill="black" x="338" y="455" width="13" height="13" />
  <rect fill="black" x="351" y="455" width="13" height="13" />
  <rect fill="black" x="364" y="455" width="13" height="13" />
  <rect fill="black" x="390" y="455" width="13" height="13" />
  <rect fill="black" x="403" y="455" width="13" height="13" />
  <rect fill="black" x="468" y="455" width="13" height="13" />
  <rect fill="black" x="0" y="468" width="13" height="13" />
  <rect fill="black" x="13" y="468" width="13" height="13" />
  <rect fill="black" x="26" y="468" width="13" height="13" />
  <rect fill="black" x="39" y="468" width="13" height="13" />
  <rect fill="black" x="52" y="468" width="13" height="13" />
  <rect fill="black" x="65" y="468" width="13" height="13" />
  <rect fill="black" x="78" y="468" width="13" height="13" />
  <rect fill="black" x="117" y="468" width="13" height="13" />
  <rect fill="black" x="130" y="468" width="13" height="13" />
  <rect fill="black" x="156" y="468" width="13" height="13" />
  <rect fill="black" x="169" y="468" width="13" height="13" />
  <rect fill="black" x="221" y="468" width="13" height="13" />
  <rect fill="black" x="247" y="468" width="13" height="13" />
  <rect fill="black" x="260" y="468" width="13" height="13" />
  <rect fill="black" x="325" y="468" width="13" height="13" />
  <rect fill="black" x="338" y="468" width="13" height="13" />
  <rect fill="black" x="442" y="468" width="13" height="13" />
  <rect fill="black" x="455" y="468" width="13" height="13" />
  <rect fill="black" x="468" y="468" width="13" height="13" />
</svg>
