<?xml version="1.0" encoding="UTF-8"?>
<svg
   xmlns="http://www.w3.org/2000/svg"
   viewBox="0 0 600 600"
   height="600"
   width="600"
   version="1.1">
  <g id="layer1">
    <path
       style="fill:#000000"
       id="path978"
       d="m 156.830,130.662 c 0.265,0.307 0.605,1.151 0.715,1.802 0.222,1.148 0.413,1.264 2.018,1.503 0.955,0.158 2.100,0.471 2.520,0.703 0.876,0.464 1.552,2.572 1.426,4.445 -0.043,1.070 0.032,1.147 1.332,1.040 1.607,-0.143 1.987,0.241 2.546,2.692 1.753,7.316 2.045,9.612 1.825,14.354 -0.178,4.168 -0.142,4.665 0.687,6.429 1.321,2.800 1.473,3.069 1.855,3.032 0.191,0.001 1.462,-1.520 2.812,-3.425 3.047,-4.227 7.010,-8.028 10.041,-9.616 1.266,-0.680 3.988,-1.658 6.018,-2.182 5.286,-1.344 14.542,-1.365 21.534,-0.098 3.858,0.711 7.299,0.962 18.160,1.334 15.105,0.550 19.309,1.073 29.237,3.657 0.725,0.195 3.477,0.556 6.114,0.802 4.969,0.488 8.789,1.391 15.698,3.690 2.214,0.740 5.993,1.910 8.399,2.575 5.383,1.562 6.069,1.948 8.731,4.451 1.559,1.500 3.502,2.698 7.658,4.751 5.338,2.671 10.140,5.607 12.194,7.493 0.532,0.462 3.500,3.119 6.581,5.892 3.081,2.734 6.465,6.121 7.489,7.503 3.263,4.341 5.222,9.249 6.179,15.413 1.214,7.848 0.415,13.389 -3.389,22.776 -1.475,3.663 -2.604,6.792 -2.528,6.945 0.075,0.153 1.070,0.120 2.180,-0.026 3.100,-0.440 8.952,-0.366 16.675,0.215 7.569,0.543 15.948,0.173 21.539,-0.940 6.854,-1.335 11.023,-1.310 12.583,0.114 1.103,1.000 0.946,1.650 -0.707,3.208 -2.076,1.900 -5.452,3.447 -11.276,5.095 -1.647,0.487 -2.491,0.979 -3.378,2.044 -1.348,1.636 -1.426,1.980 -0.395,2.254 0.992,0.273 0.987,1.115 -0.010,1.720 -0.343,0.926 -0.545,1.090 -1.558,2.051 -0.320,0.304 -0.943,0.649 -2.093,1.063 -1.188,0.451 -2.413,0.635 -3.675,0.513 l -1.872,-0.202 -0.390,1.374 c -1.878,7.064 -2.856,10.616 -3.910,14.166 -0.468,1.565 -0.984,4.660 -1.189,6.877 -0.166,2.217 -0.603,4.854 -0.954,5.922 -0.546,1.794 -2.345,8.324 -3.637,13.365 -0.744,2.902 -0.540,7.110 0.402,9.182 0.415,0.844 1.400,2.418 2.273,3.456 0.834,1.076 1.973,2.536 2.543,3.266 0.569,0.730 1.973,2.536 3.150,4.035 1.176,1.460 2.390,3.189 2.730,3.841 0.680,1.305 7.250,9.032 7.709,9.035 0.152,0.001 0.537,-0.302 0.806,-0.644 0.847,-0.989 5.185,-3.640 9.367,-5.719 6.867,-3.400 17.978,-6.545 27.241,-7.713 3.866,-0.512 6.200,-0.689 13.355,-1.105 6.466,-0.419 17.356,1.329 25.372,4.055 7.176,2.414 10.722,4.196 18.341,9.214 10.552,6.948 19.560,16.335 25.998,27.008 5.339,8.906 7.669,15.613 9.510,27.520 0.772,5.053 0.764,25.325 -0.026,29.642 -1.226,6.762 -2.979,11.915 -6.271,18.627 -5.885,11.860 -16.247,23.960 -27.542,32.153 -1.075,0.758 -2.113,1.517 -2.305,1.707 -1.306,1.024 -7.908,4.771 -11.322,6.433 -4.680,2.267 -11.962,4.708 -16.289,5.523 -4.058,0.740 -16.871,0.662 -22.604,-0.137 -7.796,-1.080 -16.809,-3.353 -22.494,-5.644 -0.419,-0.193 -1.182,-0.504 -1.716,-0.698 -5.341,-2.212 -13.385,-6.583 -17.917,-9.746 -8.150,-5.748 -18.943,-17.212 -21.890,-23.311 -1.284,-2.608 -0.788,-2.491 -8.784,-2.119 -3.978,0.167 -10.138,0.474 -13.658,0.605 l -6.466,0.305 -1.499,1.214 c -2.036,1.594 -4.796,2.533 -5.786,1.915 -0.800,-0.502 -1.452,-0.276 -1.457,0.564 -0.005,0.956 -1.153,1.063 -2.066,0.178 -0.760,-0.692 -1.257,-0.848 -3.132,-0.745 -2.142,0.102 -2.257,0.139 -2.992,1.511 -0.851,1.601 -1.196,1.714 -2.759,0.863 -0.610,-0.309 -1.564,-0.583 -2.176,-0.586 l -1.032,-0.005 0.016,-2.868 c 0.016,-2.715 0.055,-2.868 0.975,-3.092 0.536,-0.111 1.339,-0.145 1.797,-0.026 0.801,0.234 1.837,-0.256 1.841,-0.906 9.1e-4,-0.153 -0.950,-0.923 -2.093,-1.695 -3.276,-2.238 -5.441,-4.699 -7.027,-8.074 -1.699,-3.644 -2.258,-6.095 -2.233,-10.110 0.026,-4.283 0.654,-7.072 2.436,-10.733 1.858,-3.813 5.054,-7.160 8.507,-8.936 1.189,-0.643 2.188,-1.363 2.190,-1.631 0.010,-1.683 -7.695,-11.291 -14.083,-17.564 -12.357,-12.085 -19.327,-17.061 -35.189,-25.113 -7.397,-3.755 -9.263,-5.181 -12.181,-9.597 -1.440,-2.150 -7.634,-8.767 -10.450,-11.193 -2.701,-2.311 -10.738,-7.867 -11.388,-7.871 -0.229,-0.002 -0.692,0.646 -1.003,1.409 -1.202,2.784 -1.165,2.937 0.625,4.134 4.114,2.740 13.127,11.286 17.873,16.976 8.468,10.149 14.019,22.001 15.785,33.525 0.258,1.570 0.588,3.790 0.773,4.939 0.516,3.216 0.300,13.503 -0.340,18.319 -1.719,12.305 -5.152,23.376 -10.805,34.625 -5.497,11.020 -15.809,21.094 -28.126,27.483 -4.680,2.457 -12.119,5.434 -16.180,6.518 -4.827,1.271 -6.933,1.755 -9.767,2.235 -8.423,1.440 -22.191,1.127 -29.18,-0.635 -13.977,-3.527 -24.310,-8.867 -33.897,-17.531 -14.227,-12.861 -22.171,-27.291 -25.308,-46.243 -0.959,-5.743 -1.075,-18.251 -0.237,-23.945 1.634,-11.043 5.261,-22.496 9.514,-29.967 2.667,-4.688 7.758,-11.580 11.183,-15.155 0.692,-0.683 7.574,-6.609 9.381,-8.051 2.190,-1.746 9.368,-5.986 13.550,-8.026 9.129,-4.381 16.141,-6.442 27.012,-7.792 7.310,-0.912 17.096,0.103 27.866,2.885 1.642,0.430 3.208,0.707 3.515,0.594 0.268,-0.112 1.039,-1.064 1.772,-2.131 0.887,-1.371 1.580,-2.017 2.346,-2.165 1.455,-0.297 2.497,-1.820 1.890,-2.780 -0.302,-0.537 -0.337,-1.035 0.010,-1.912 0.545,-1.565 -0.026,-2.027 -2.284,-1.734 -1.378,0.182 -1.798,0.065 -2.787,-0.743 -0.913,-0.808 -1.295,-0.925 -2.099,-0.625 -2.261,0.866 -3.977,-0.099 -3.964,-2.203 0.005,-0.803 -0.185,-0.881 -2.021,-0.892 -1.109,-0.005 -2.219,0.178 -2.450,0.406 -0.269,0.265 -1.149,0.336 -2.296,0.177 -2.713,-0.322 -6.536,-0.613 -8.640,-0.626 -2.180,-0.010 -3.4,-0.708 -4.078,-2.319 -0.339,-0.843 -0.719,-1.189 -1.331,-1.193 -0.879,-0.005 -1.678,-0.737 -2.396,-2.156 -0.226,-0.460 -0.595,-2.757 -0.810,-5.092 -0.321,-3.673 -0.546,-4.554 -1.642,-6.627 -2.458,-4.566 -3.075,-10.001 -1.817,-15.692 0.903,-4.010 0.929,-8.294 0.096,-9.599 -0.909,-1.420 -2.360,-1.735 -3.628,-0.787 -0.537,0.379 -1.850,2.437 -2.934,4.496 -2.283,4.422 -3.943,6.860 -6.021,8.951 -3.078,3.079 -7.289,3.589 -7.272,0.873 0.005,-1.070 1.351,-2.057 2.842,-2.048 1.529,0.010 3.147,-1.817 5.083,-5.744 2.942,-5.910 4.736,-11.637 5.575,-17.483 0.480,-3.554 1.100,-4.851 2.672,-5.415 1.303,-0.489 3.251,-0.133 4.049,0.789 0.342,0.384 1.363,2.264 2.307,4.221 4.155,8.630 9.054,14.321 11.015,12.726 0.422,-0.341 0.581,-1.258 0.592,-3.056 0.026,-4.053 1.220,-5.729 3.974,-5.712 1.223,0.005 1.452,0.199 2.511,2.080 1.286,2.341 1.856,2.879 2.32,2.156 0.347,-0.533 1.715,-5.306 4.726,-16.227 1.095,-4.009 2.422,-8.476 2.929,-10.003 0.506,-1.488 0.935,-2.900 0.937,-3.130 0.005,-1.032 1.788,-4.846 2.984,-6.407 l 1.349,-1.751 -3.954,-3.887 c -2.167,-2.155 -4.563,-4.426 -5.285,-5.119 -0.760,-0.693 -1.671,-1.884 -2.010,-2.689 -1.245,-2.799 -1.472,-3.183 -3.183,-4.876 -2.508,-2.578 -4.683,-3.470 -7.325,-3.104 -1.148,0.146 -3.291,0.286 -4.706,0.277 -2.447,0.021 -2.715,-0.054 -3.550,-1.092 -1.025,-1.153 -1.293,-1.194 -5.123,-0.299 -0.957,0.223 -2.757,0.595 -4.020,0.779 -1.263,0.221 -3.064,0.784 -4.023,1.237 -1.687,0.831 -1.727,0.946 -1.853,2.857 -0.167,2.370 -0.975,3.130 -3.384,3.116 -1.185,-0.005 -1.719,-0.202 -2.136,-0.816 -0.455,-0.691 -0.645,-0.768 -1.336,-0.390 -1.995,1.020 -4.399,0.126 -5.953,-2.254 -0.758,-1.152 -1.671,-1.884 -3.464,-2.698 -1.563,-0.774 -2.896,-1.738 -3.769,-2.814 l -1.367,-1.652 -0.923,0.874 c -0.653,0.607 -1.305,0.833 -2.031,0.752 -1.414,-0.161 -2.852,-2.694 -3.216,-5.642 -0.183,-1.301 -0.522,-2.221 -0.903,-2.453 -1.181,-0.657 -3.235,-2.659 -3.232,-3.156 0.002,-0.267 -0.338,-0.919 -0.794,-1.496 -0.645,-0.806 -1.103,-1.000 -2.480,-1.009 -2.944,-0.016 -4.088,-0.751 -5.371,-3.513 -2.379,-5.024 -2.900,-7.322 -2.904,-12.983 0.037,-5.775 0.390,-7.647 2.485,-12.568 3.143,-7.401 9.264,-13.942 16.939,-18.180 3.262,-1.815 5.792,-2.795 11.310,-4.444 4.828,-1.424 7.544,-1.637 8.304,-0.714 z m 84.370,89.363 c -0.001,0.191 1.214,1.613 2.696,3.191 4.712,5.000 7.024,8.495 8.148,12.442 0.336,1.225 0.481,2.603 0.325,3.176 -0.274,1.145 -2.708,5.147 -9.581,15.891 -2.548,3.962 -6.294,9.791 -8.302,12.954 -2.007,3.124 -4.17,6.438 -4.787,7.353 -0.617,0.875 -1.237,2.248 -1.357,3.051 -0.081,0.764 -0.470,1.948 -0.780,2.596 -0.541,0.990 -0.543,1.335 -0.090,2.294 0.679,1.419 2.929,2.541 5.377,2.633 l 1.912,0.048 0.110,-5.545 c 0.070,-5.278 0.149,-5.698 1.352,-8.636 2.717,-6.677 13.692,-25.199 19.013,-32.166 0.578,-0.723 2.313,-3.046 3.894,-5.140 2.352,-3.121 6.706,-8.488 9.518,-11.722 0.847,-0.950 0.313,-1.336 -2.818,-1.967 -2.941,-0.591 -24.626,-0.990 -24.629,-0.455 z m -21.794,24.117 c -6.529,10.785 -8.039,13.759 -7.704,15.329 0.110,0.650 0.332,2.029 0.440,3.024 0.179,1.798 0.141,1.875 -1.589,3.470 -0.961,0.874 -1.770,1.787 -1.771,2.055 -0.003,0.535 1.217,1.078 3.738,1.667 2.100,0.471 2.369,0.282 3.306,-2.886 2.264,-7.597 7.728,-19.307 10.657,-22.999 0.886,-1.104 2.271,-2.434 3.116,-2.964 2.265,-1.516 2.115,-1.976 -0.939,-2.644 -0.649,-0.156 -1.755,-0.660 -2.479,-1.162 -0.723,-0.501 -1.448,-0.926 -1.600,-0.927 -0.153,-0.037 -2.469,3.618 -5.174,8.038 z m 122.690,1.891 c 0.075,0.229 1.333,0.849 2.783,1.355 2.328,0.779 3.322,0.899 8.753,0.933 5.202,-0.005 6.044,-0.078 5.511,-0.502 -0.875,-0.655 -5.155,-1.408 -10.431,-1.784 -6.499,-0.498 -6.767,-0.499 -6.617,-0.002 z m -14.291,4.044 c -0.778,2.213 -1.517,4.274 -1.634,4.579 -0.427,1.068 -4.241,12.022 -5.176,14.847 -0.818,2.519 -4.074,16.001 -4.080,16.881 -0.003,0.496 25.47,0.613 26.429,0.121 1.036,-0.567 1.772,-2.131 2.518,-5.377 0.354,-1.566 1.132,-3.780 1.750,-4.923 1.083,-2.020 1.395,-3.089 3.088,-11.073 1.732,-8.098 2.045,-9.358 2.315,-9.662 0.154,-0.152 1.149,-0.413 2.183,-0.599 1.033,-0.146 2.259,-0.521 2.682,-0.786 0.921,-0.567 2.158,-2.817 1.817,-3.202 -0.152,-0.115 -2.637,-0.245 -5.544,-0.262 -4.321,-0.026 -5.659,-0.187 -7.109,-0.769 -3.052,-1.242 -8.623,-3.456 -9.233,-3.689 -0.305,-0.078 -2.370,-0.167 -4.589,-0.142 l -3.978,0.053 z M 177.490,268.598 c -1.269,1.178 -2.011,3.736 -2.030,6.949 -0.010,2.218 0.405,2.641 1.520,1.462 1.963,-2.053 5.018,-7.542 5.027,-9.072 0.001,-0.191 -0.762,-0.387 -1.680,-0.392 -1.300,-0.005 -1.913,0.217 -2.836,1.053 z m 7.494,0.390 c -0.384,0.341 -0.693,0.836 -0.695,1.104 -0.005,0.803 -2.513,4.498 -5.055,7.390 -2.195,2.549 -2.815,3.807 -1.782,3.814 0.268,0.002 2.574,-2.011 5.114,-4.482 2.500,-2.470 5.232,-4.978 6.000,-5.547 1.536,-1.138 1.769,-1.672 1.009,-2.441 -0.684,-0.692 -3.744,-0.596 -4.590,0.163 z m 91.241,3.383 c -1.035,0.414 -2.223,0.904 -2.645,1.093 -0.421,0.188 -1.533,0.602 -2.491,0.864 -0.958,0.300 -1.726,0.754 -1.727,1.022 -0.001,0.228 1.142,0.924 2.553,1.507 1.373,0.620 3.317,1.664 4.307,2.321 0.990,0.694 1.867,1.158 1.982,1.082 0.115,-0.152 0.272,-7.150 0.204,-8.413 -0.037,-0.383 -0.074,-0.383 -2.183,0.522 z m -72.042,3.350 c -1.344,0.909 -2.972,4.495 -3.371,7.208 l -0.280,2.063 2.113,-1.555 c 1.152,-0.834 3.263,-2.084 4.683,-2.763 2.953,-1.435 4.454,-2.956 4.464,-4.562 l 0.005,-1.108 -3.289,-0.021 c -2.639,-0.016 -3.481,0.131 -4.326,0.738 z m 109.733,19.406 c -0.270,0.534 -0.933,2.556 -1.480,4.504 -0.547,1.947 -1.326,4.276 -1.752,5.114 -1.355,2.745 -1.095,4.047 1.335,6.854 3.494,3.999 11.631,12.004 13.573,13.392 2.018,1.389 4.157,1.937 5.003,1.254 0.307,-0.265 1.188,-0.413 1.990,-0.332 l 1.414,0.123 1.254,-4.964 c 1.840,-7.065 4.422,-16.649 5.516,-20.391 1.132,-3.818 1.219,-5.577 0.266,-6.118 -0.419,-0.270 -5.275,-0.414 -13.652,-0.388 l -12.966,-0.002 z m -84.380,0.597 c -3.349,3.651 -2.044,9.205 3.281,13.981 5.706,5.159 10.499,9.396 13.885,12.361 1.978,1.694 4.451,3.851 5.555,4.814 3.157,2.811 18.910,16.447 22.068,19.143 2.853,2.426 3.614,3.081 5.821,5.045 2.015,1.809 8.029,6.703 17.164,14.103 2.626,2.119 5.404,4.431 6.203,5.124 0.760,0.692 1.636,1.271 1.904,1.273 0.535,0.003 3.239,-4.455 3.052,-5.106 -0.074,-0.229 -0.376,-0.996 -0.678,-1.686 -0.753,-1.802 -1.470,-3.451 -2.451,-5.828 -0.489,-1.151 -2.000,-4.372 -3.399,-7.096 -2.872,-5.716 -4.532,-9.475 -6.036,-13.691 -0.676,-1.954 -2.265,-4.795 -4.539,-8.251 -1.933,-2.918 -3.939,-6.296 -4.505,-7.524 -1.397,-2.915 -1.549,-3.107 -4.751,-4.886 -1.563,-0.850 -5.067,-3.167 -7.886,-5.173 -2.780,-1.967 -7.391,-4.787 -10.212,-6.296 -6.024,-3.172 -7.434,-3.984 -10.177,-5.760 -1.104,-0.733 -2.134,-1.313 -2.248,-1.314 -0.114,-5.4e-4 -0.724,-0.348 -1.296,-0.772 -0.609,-0.462 -2.362,-1.468 -3.887,-2.318 l -2.783,-1.508 -6.348,-0.077 -6.387,-0.037 z m 125.231,37.133 c -1.193,1.255 -2.927,3.462 -3.892,4.910 -1.582,2.438 -1.661,2.705 -1.364,4.275 0.296,1.608 0.257,1.722 -1.088,2.900 -0.884,0.798 -1.805,1.251 -2.493,1.247 -1.070,-0.005 -1.109,0.032 -1.043,1.868 0.065,1.759 -0.010,1.988 -1.666,3.623 -1.000,0.949 -1.961,1.747 -2.152,1.746 -0.191,-9.7e-4 -0.964,1.333 -1.738,2.934 -0.736,1.639 -2.363,5.034 -3.564,7.551 -1.200,2.517 -2.518,5.263 -2.905,6.140 -0.658,1.411 -0.701,2.061 -0.426,7.264 0.417,6.887 0.672,8.954 1.169,8.957 0.229,0.001 0.952,0.617 1.675,1.348 l 1.215,1.345 0.235,-1.069 c 0.118,-0.572 0.317,-1.910 0.477,-2.942 1.685,-12.917 6.391,-25.817 12.990,-35.530 3.318,-4.837 5.476,-7.386 10.170,-11.948 2.039,-1.976 3.694,-3.764 3.695,-3.917 0.002,-0.344 -3.300,-4.457 -3.948,-4.958 -0.495,-0.347 -2.686,1.437 -5.342,4.251 z m 66.670,5.835 c -0.841,6.267 -1.644,12.612 -2.650,20.753 -0.322,2.713 -0.966,7.988 -1.447,11.695 l -0.844,6.726 1.398,2.724 c 1.134,2.110 1.703,2.840 2.620,3.152 1.145,0.389 1.260,0.351 2.954,-1.473 3.695,-3.879 3.539,-3.459 7.140,-17.016 0.586,-2.099 1.369,-5.078 1.799,-6.605 0.391,-1.489 1.095,-4.009 1.486,-5.536 2.660,-9.775 3.207,-11.646 3.519,-12.792 0.312,-1.068 0.275,-1.298 -0.448,-1.761 -1.219,-0.810 -3.967,-1.669 -7.367,-2.339 -4.011,-0.789 -4.699,-0.908 -6.304,-0.994 l -1.376,-0.048 z m -10.996,-3.164 c -3.674,0.474 -7.237,1.371 -7.776,2.018 -0.384,0.417 -0.234,0.878 1.497,5.364 0.150,0.421 0.488,1.379 0.752,2.108 0.263,0.728 0.601,1.686 0.752,2.107 0.188,0.422 0.752,2.070 1.316,3.641 0.564,1.572 1.240,3.526 1.541,4.369 0.301,0.805 1.580,4.331 2.821,7.858 1.241,3.488 2.407,6.746 2.595,7.245 0.226,0.498 0.374,1.264 0.371,1.723 -0.043,1.223 -0.385,0.494 -2.793,-6.059 -1.204,-3.182 -2.295,-6.134 -2.522,-6.633 -0.791,-1.993 -1.168,-2.875 -3.539,-9.277 -1.393,-3.680 -2.823,-7.437 -3.239,-8.319 -0.376,-0.92 -0.715,-1.878 -0.713,-2.184 0.002,-0.267 -0.225,-0.728 -0.529,-0.959 -1.141,-0.963 -9.076,1.895 -12.611,4.512 -2.535,1.897 -2.729,2.317 -1.784,4.043 6.090,11.128 11.540,20.724 12.110,21.378 0.379,0.422 3.188,3.997 6.224,7.916 5.389,6.917 5.617,7.148 7.640,7.849 1.183,0.389 2.214,0.625 2.291,0.510 0.346,-0.341 0.400,-9.177 0.102,-10.594 -0.224,-0.880 -0.184,-1.148 0.043,-0.802 0.189,0.268 0.456,0.346 0.572,0.156 0.116,-0.190 0.515,-2.980 0.840,-6.229 0.364,-3.248 0.810,-7.491 1.051,-9.364 0.202,-1.911 0.567,-5.237 0.810,-7.453 0.242,-2.217 0.608,-5.733 0.850,-7.835 0.204,-2.102 0.486,-4.548 0.568,-5.389 0.081,-0.879 0.048,-1.682 -0.065,-1.836 -0.379,-0.384 -5.888,-0.303 -9.180,0.135 z m -241.811,0.370 c -0.268,0.189 -0.424,0.647 -0.312,1.031 0.112,0.421 0.472,4.171 0.752,8.380 0.318,4.209 0.707,9.452 0.923,11.671 0.320,3.827 0.747,9.222 1.281,15.804 0.176,2.334 0.439,3.253 1.084,4.022 0.797,0.961 1.715,0.928 1.721,-0.066 0.003,-0.573 2.185,-7.139 3.817,-11.489 1.516,-4.006 2.563,-6.486 4.809,-10.986 1.742,-3.470 1.859,-3.928 1.876,-6.682 0.010,-1.606 0.210,-3.211 0.403,-3.515 0.270,-0.419 0.382,0.043 0.373,1.532 0.026,2.103 0.026,2.103 0.681,1.189 0.347,-0.495 1.468,-2.401 2.435,-4.192 0.967,-1.791 1.972,-3.659 2.281,-4.116 0.308,-0.457 0.426,-0.953 0.312,-1.107 -0.152,-0.115 -1.374,-0.352 -2.751,-0.437 -1.987,-0.203 -2.523,-0.130 -2.564,0.290 -0.002,0.305 -0.154,0.190 -0.304,-0.231 -0.226,-0.536 -0.798,-0.846 -1.982,-1.006 -2.675,-0.398 -14.264,-0.469 -14.840,-0.090 z m -5.552,1.152 c -4.444,1.273 -10.654,3.530 -10.848,3.988 -0.077,0.228 1.320,2.991 3.137,6.138 3.179,5.565 3.935,6.908 5.412,9.442 0.378,0.690 1.854,3.262 3.254,5.680 1.400,2.417 2.990,5.181 3.519,6.141 1.058,1.995 1.514,2.533 1.783,2.267 0.115,-0.114 -0.057,-3.136 -0.342,-6.695 -0.284,-3.558 -0.711,-8.878 -0.884,-11.824 -0.841,-12.627 -1.242,-15.880 -1.892,-15.884 -0.229,-0.002 -1.646,0.333 -3.140,0.745 z m 275.213,4.154 c -0.272,0.839 -1.132,3.855 -1.876,6.681 -3.013,11.265 -5.283,19.742 -6.417,23.866 -1.368,4.849 -1.368,4.925 -0.715,4.547 0.307,-0.189 1.153,-1.025 1.885,-1.862 0.731,-0.836 2.272,-2.549 3.465,-3.803 1.155,-1.255 4.427,-4.754 7.276,-7.796 2.810,-3.043 6.968,-7.454 9.201,-9.850 2.233,-2.396 4.120,-4.564 4.198,-4.832 0.313,-1.298 -13.181,-8.724 -15.553,-8.547 -0.765,0.071 -1.073,0.414 -1.463,1.597 z m -290.130,2.104 c -4.143,2.078 -9.946,6.595 -10.453,8.121 -0.194,0.572 1.550,2.916 7.474,10.066 8.429,10.263 13.213,16.030 13.783,16.683 0.189,0.268 0.987,1.191 1.708,2.075 0.835,1.076 2.091,2.001 3.617,2.699 1.258,0.581 3.089,1.434 4.080,1.899 2.974,1.356 2.858,1.700 2.139,-5.915 -0.431,-4.401 -0.506,-4.707 -1.984,-7.088 -1.477,-2.303 -5.377,-8.867 -7.042,-11.861 -0.415,-0.729 -1.098,-1.804 -1.476,-2.380 -0.417,-0.537 -0.720,-1.075 -0.719,-1.189 0.001,-0.153 -1.437,-2.609 -6.360,-10.786 -0.870,-1.420 -1.589,-2.763 -1.588,-2.954 0.004,-0.611 -1.106,-0.388 -3.178,0.631 z m 54.913,1.901 c -12.083,18.477 -14.335,23.971 -14.479,35.177 -0.010,2.027 -0.010,2.027 1.022,1.765 1.723,-0.371 2.569,-1.131 5.419,-4.442 1.464,-1.750 6.779,-7.952 11.826,-13.812 5.046,-5.859 9.245,-10.882 9.362,-11.149 0.388,-1.030 -4.785,-5.536 -9.131,-7.972 -1.334,-0.734 -2.516,-1.353 -2.631,-1.354 -0.114,-8.1e-4 -0.731,0.798 -1.387,1.789 z m 180.027,1.664 c 0.032,0.765 6.407,9.333 6.715,8.990 0.154,-0.152 -0.639,-1.686 -3.365,-6.292 -1.325,-2.188 -2.122,-3.149 -2.620,-3.152 -0.382,-0.002 -0.728,0.225 -0.729,0.454 z m 70.807,4.828 c -1.385,1.444 -6.697,6.958 -11.816,12.282 -5.119,5.324 -10.546,10.952 -12.047,12.511 -2.502,2.623 -2.695,2.928 -2.936,4.954 -0.160,1.185 -0.399,2.827 -0.481,3.707 -0.160,1.108 -0.086,1.644 0.295,1.761 0.267,0.116 2.333,-0.026 4.591,-0.277 4.248,-0.509 5.514,-1.038 8.551,-3.543 0.653,-0.531 1.845,-1.480 2.651,-2.087 2.958,-2.277 6.187,-4.819 6.956,-5.465 0.422,-0.341 2.728,-2.163 5.149,-4.023 2.421,-1.897 5.111,-4.023 5.995,-4.744 0.884,-0.721 2.767,-2.201 4.150,-3.226 1.383,-1.062 2.613,-2.125 2.730,-2.431 0.154,-0.267 -0.374,-1.302 -1.171,-2.301 -2.201,-2.767 -9.083,-9.655 -9.656,-9.659 -0.267,-0.002 -1.613,1.137 -2.960,2.544 z m -79.382,2.693 c -1.424,1.483 -2.580,2.891 -2.582,3.197 -0.002,0.267 2.625,2.234 5.787,4.319 3.200,2.084 8.723,5.751 12.266,8.144 3.542,2.392 6.590,4.362 6.743,4.363 0.458,0.002 0.424,-0.647 -0.032,-0.956 -0.228,-0.154 -4.405,-5.266 -9.340,-11.377 -7.554,-9.378 -9.036,-11.032 -9.611,-10.767 -0.384,0.227 -1.807,1.595 -3.231,3.078 z m -243.016,3.499 c -2.814,3.730 -4.863,7.276 -4.484,7.852 0.227,0.345 8.884,4.490 12.280,5.849 0.725,0.310 2.060,0.891 2.937,1.279 1.906,0.891 4.310,1.977 6.217,2.830 6.752,2.985 8.620,3.877 8.924,4.184 0.494,0.462 1.756,0.470 1.759,0.010 0.001,-0.229 -0.150,-0.498 -0.378,-0.614 -0.190,-0.116 -3.836,-4.422 -8.051,-9.496 -4.252,-5.112 -8.885,-10.686 -10.290,-12.378 -1.442,-1.729 -2.961,-3.536 -3.379,-4.036 l -0.759,-0.884 -1.154,1.063 c -0.615,0.608 -2.233,2.549 -3.621,4.338 z m 77.266,5.631 c -4.621,5.211 -9.281,10.538 -10.436,11.794 -3.658,4.108 -4.005,4.565 -3.700,4.681 0.267,0.078 6.670,-2.598 15.606,-6.484 1.073,-0.491 5.369,-2.338 9.395,-4.073 0.958,-0.415 2.646,-1.169 3.758,-1.660 1.112,-0.489 2.147,-0.905 2.338,-0.903 1.300,0.005 0.060,-3.595 -2.517,-7.397 -1.743,-2.535 -4.860,-5.728 -5.512,-5.579 -0.306,0.037 -4.310,4.372 -8.932,9.623 z m 159.736,-1.517 c -1.272,1.675 -2.739,3.999 -3.320,5.220 -1.007,2.097 -2.522,6.027 -2.526,6.601 -0.002,0.306 0.799,0.693 4.193,2.243 0.953,0.426 3.852,1.706 6.484,2.908 2.631,1.162 7.591,3.373 11.062,4.885 3.471,1.551 6.637,2.947 7.056,3.140 0.419,0.193 2.135,1.007 3.814,1.782 3.241,1.511 3.471,1.551 10.203,1.438 2.448,-0.021 4.132,-0.204 4.133,-0.434 0.001,-0.229 -1.136,-1.728 -2.503,-3.380 -1.367,-1.615 -3.683,-4.382 -5.126,-6.150 -1.481,-1.730 -3.192,-3.423 -3.840,-3.771 -1.334,-0.696 -25.449,-16.639 -26.019,-17.178 -0.760,-0.731 -1.413,-0.238 -3.611,2.693 z m 96.482,3.147 c -1.844,1.442 -4.342,3.339 -5.571,4.288 -1.191,0.949 -3.458,2.694 -5.034,3.870 -1.537,1.214 -4.380,3.377 -6.263,4.858 -1.921,1.479 -4.765,3.681 -6.340,4.857 -3.189,2.428 -3.038,2.735 0.905,1.994 3.216,-0.592 5.322,-0.962 11.525,-2.033 2.948,-0.517 6.202,-1.072 7.274,-1.294 5.590,-1.075 11.679,-2.185 13.095,-2.406 1.263,-0.183 1.647,-0.411 1.650,-0.984 0.016,-2.563 -6.292,-15.682 -7.554,-15.689 -0.191,-0.001 -1.880,1.135 -3.687,2.540 z m -245.173,5.972 c -2.531,1.056 -5.521,2.300 -6.634,2.790 -1.111,0.491 -2.109,0.905 -2.185,0.904 -0.076,-5.4e-4 -1.073,0.414 -2.185,0.904 -1.112,0.490 -3.604,1.546 -5.483,2.299 -1.916,0.753 -4.141,1.696 -4.984,2.073 -0.843,0.377 -2.645,1.131 -4.026,1.658 -1.648,0.678 -3.031,1.587 -4.147,2.728 l -1.693,1.710 0.251,2.564 c 0.144,1.416 0.366,2.679 0.518,2.833 0.113,0.115 1.335,0.543 2.672,0.895 2.329,0.626 3.400,0.594 5.967,-0.192 0.613,-0.187 8.542,-2.128 17.620,-4.291 9.040,-2.164 16.624,-4.107 16.817,-4.297 0.576,-0.531 -0.530,-7.155 -1.699,-9.916 -0.980,-2.377 -2.303,-4.833 -2.837,-5.257 -0.456,-0.385 -0.877,-0.349 -1.989,0.103 -0.767,0.339 -3.451,1.470 -5.981,2.487 z m -95.390,-0.348 c -1.359,3.357 -3.236,10.192 -3.090,11.302 0.073,0.612 0.797,0.923 3.355,1.626 1.794,0.470 6.262,1.682 9.928,2.661 3.665,0.978 8.744,2.309 11.265,2.975 2.520,0.665 6.224,1.644 8.210,2.191 2.978,0.783 3.933,0.903 5.351,0.606 0.957,-0.185 2.833,-0.556 4.212,-0.777 3.331,-0.591 3.829,-0.741 3.831,-1.124 0.003,-0.458 -5.539,-7.338 -6.377,-7.879 -0.342,-0.231 -2.898,-1.356 -5.607,-2.481 -5.112,-2.134 -6.524,-2.717 -9.155,-3.918 -2.594,-1.163 -4.043,-1.822 -7.63,-3.297 -1.907,-0.814 -4.349,-1.862 -5.455,-2.366 -1.106,-0.503 -2.097,-0.930 -2.174,-0.931 -0.114,-7.5e-4 -0.915,-0.349 -1.831,-0.737 -2.059,-0.968 -2.632,-1.124 -3.207,-0.936 -0.229,0.113 -0.965,1.485 -1.625,3.088 z m 237.113,4.917 c -0.502,0.914 -2.314,9.547 -2.677,12.644 l -0.243,2.408 18.322,-0.195 c 10.060,-0.091 18.590,-0.307 18.897,-0.497 0.498,-0.264 0.499,-0.303 -0.037,-0.344 -0.344,-0.002 -1.794,-0.546 -3.243,-1.205 -4.310,-1.938 -4.653,-2.093 -10.833,-4.808 -3.242,-1.434 -6.446,-2.831 -7.056,-3.141 -0.648,-0.271 -3.509,-1.551 -6.408,-2.830 -2.899,-1.241 -5.378,-2.403 -5.492,-2.519 -0.417,-0.423 -0.84,-0.234 -1.226,0.489 z m 94.270,8.450 c -10.989,1.961 -20.217,3.740 -20.525,4.006 -0.346,0.265 -1.153,0.949 -1.807,1.518 -0.653,0.569 -1.499,1.253 -1.806,1.519 -0.537,0.379 -0.539,0.723 -0.167,2.446 0.261,1.111 0.637,2.146 0.827,2.376 0.228,0.192 1.410,0.773 2.669,1.278 2.251,0.893 2.404,0.894 11.470,0.681 5.049,-0.121 14.307,-0.333 20.542,-0.448 6.235,-0.153 11.477,-0.351 11.592,-0.503 0.461,-0.456 0.237,-7.571 -0.353,-11.132 -0.663,-4.134 -1.077,-5.246 -1.880,-5.251 -0.343,-0.002 -9.609,1.586 -20.560,3.508 z m -31.547,-1.338 c -0.731,0.798 -0.771,0.989 -0.275,1.184 0.953,0.387 1.722,-0.142 1.728,-1.175 0.005,-1.223 -0.413,-1.226 -1.453,-0.010 z m -7.544,1.598 c 0.113,0.115 0.458,-0.037 0.766,-0.339 0.500,-0.493 0.501,-0.685 -0.105,-1.492 l -0.644,-0.960 -0.122,1.261 c -0.081,0.726 -0.048,1.414 0.105,1.530 z m -249.936,2.960 c 1.101,1.345 2.202,2.537 2.508,2.654 0.953,0.387 2.029,-0.485 2.036,-1.594 0.005,-0.917 -0.298,-1.187 -2.587,-2.157 -1.411,-0.620 -2.707,-1.278 -2.898,-1.432 -0.190,-0.192 -0.495,-0.232 -0.649,-0.118 -0.192,0.113 0.527,1.303 1.590,2.648 z m -46.436,0.330 c -0.325,3.172 -0.190,12.468 0.190,12.852 0.189,0.230 8.653,-1.592 10.110,-2.157 0.498,-0.188 1.264,-0.336 1.685,-0.334 0.458,0.003 1.339,-0.144 1.991,-0.370 1.341,-0.412 7.316,-1.791 12.869,-2.981 5.132,-1.078 6.511,-1.490 6.513,-1.834 0.001,-0.191 -0.456,-0.423 -1.067,-0.541 -0.572,-0.156 -1.566,-0.354 -2.177,-0.510 -0.649,-0.118 -7.409,-1.880 -15.085,-3.877 -7.675,-1.997 -14.130,-3.604 -14.321,-3.529 -0.229,0.037 -0.544,1.526 -0.708,3.285 z m 110.052,-1.704 c -0.613,0.186 -4.213,1.045 -8.005,1.902 -3.791,0.856 -9.383,2.123 -12.448,2.831 -12.103,2.795 -12.448,2.908 -11.494,3.296 0.305,0.117 2.291,0.664 4.391,1.250 2.100,0.548 5.460,1.448 7.446,1.995 1.985,0.547 4.047,1.057 4.582,1.175 0.535,0.079 1.298,0.313 1.718,0.507 0.420,0.155 1.526,0.506 2.481,0.741 0.954,0.235 4.353,1.135 7.599,2.034 4.277,1.135 5.996,1.451 6.304,1.147 0.461,-0.456 0.705,-15.410 0.253,-16.560 -0.301,-0.728 -1.180,-0.848 -2.828,-0.322 z m 200.063,2.780 c -0.881,0.338 -0.959,0.491 -0.579,0.952 0.683,0.807 1.257,0.734 2.297,-0.368 0.885,-0.950 0.885,-0.950 0.082,-0.955 -0.420,-0.003 -1.263,0.183 -1.800,0.371 z m -27.978,3.081 c 0.304,0.307 0.722,0.577 0.914,0.579 0.153,6.4e-4 0.992,0.350 1.793,0.737 1.830,0.891 2.482,0.703 2.490,-0.750 l 0.005,-1.108 -2.906,-0.016 c -2.562,-0.016 -2.830,0.059 -2.298,0.560 z m -26.927,0.065 c -11.208,0.238 -16.335,0.474 -16.528,0.779 -0.424,0.609 -0.421,6.423 -0.005,7.075 0.227,0.345 0.685,0.463 1.413,0.276 0.612,-0.148 2.488,-0.443 4.172,-0.624 1.684,-0.181 4.363,-0.471 5.932,-0.691 1.569,-0.181 4.248,-0.509 5.932,-0.690 1.684,-0.219 7.885,-0.946 13.779,-1.676 5.894,-0.729 11.636,-1.421 12.707,-1.529 2.219,-0.215 2.489,-0.520 1.154,-1.178 -3.621,-1.934 -5.378,-2.366 -8.860,-2.234 -1.913,0.103 -10.749,0.317 -19.701,0.492 z m -210.755,0.711 c -0.958,0.261 -1.686,0.601 -1.611,0.831 0.150,0.421 4.388,1.747 5.688,1.755 0.726,0.004 0.804,-0.148 0.659,-1.449 -0.329,-2.373 -0.329,-2.373 -1.747,-1.961 -0.69,0.224 -2.031,0.599 -2.988,0.823 z m -15.702,3.423 c -5.361,1.153 -10.379,2.231 -11.106,2.419 -0.728,0.186 -2.566,0.596 -4.021,0.893 -1.493,0.297 -4.327,0.892 -6.319,1.338 -1.991,0.408 -4.251,0.892 -4.978,1.040 -1.148,0.260 -1.341,0.451 -1.462,1.482 -0.162,1.529 1.549,9.418 2.642,12.026 1.545,3.758 1.163,3.641 5.074,2.058 4.716,-1.922 7.170,-2.939 10.123,-4.222 0.958,-0.376 2.147,-0.866 2.683,-1.016 0.536,-0.149 2.031,-0.790 3.374,-1.356 1.304,-0.604 2.607,-1.093 2.875,-1.091 0.267,0.002 0.650,-0.148 0.843,-0.300 0.231,-0.190 1.573,-0.794 3.068,-1.358 10.581,-4.143 9.890,-3.726 12.706,-7.534 2.467,-3.312 2.818,-4.419 1.442,-4.504 -0.382,-0.002 -1.909,-0.432 -3.360,-0.938 -1.488,-0.467 -2.939,-0.897 -3.245,-0.937 -0.306,-0.037 -4.939,0.888 -10.339,2.002 z m 38.899,-0.069 c -0.997,0.491 -1.803,1.021 -1.804,1.212 -0.002,0.306 2.615,3.803 3.680,4.918 0.227,0.269 0.797,0.961 1.214,1.499 0.569,0.730 3.658,2.164 12.129,5.619 6.257,2.562 11.980,4.930 12.704,5.279 0.725,0.31 1.716,0.736 2.174,0.930 0.495,0.194 1.259,0.505 1.717,0.698 0.495,0.194 1.487,0.621 2.212,0.931 2.937,1.318 5.494,2.175 5.801,1.986 0.998,-0.606 4.891,-11.866 4.982,-14.313 0.002,-0.344 -0.952,-0.694 -2.861,-1.126 -1.566,-0.315 -11.151,-2.859 -19.476,-5.128 -2.520,-0.665 -5.193,-1.370 -5.919,-1.527 -0.725,-0.195 -2.902,-0.744 -4.772,-1.291 -4.429,-1.212 -8.943,-1.086 -11.782,0.311 z m 275.872,2.742 c -13.617,0.147 -22.952,0.511 -22.954,0.817 -9.7e-4,0.153 0.379,0.423 0.837,0.655 1.906,0.93 5.301,2.441 5.416,2.442 0.076,3.2e-4 1.640,0.698 3.432,1.550 1.792,0.852 3.356,1.550 3.471,1.550 0.076,1.6e-4 1.335,0.543 2.746,1.202 1.449,0.658 3.089,1.433 3.738,1.705 0.609,0.31 3.547,1.628 6.484,2.907 5.416,2.442 7.781,3.489 8.315,3.760 0.800,0.463 2.759,-7.174 3.251,-12.755 0.370,-4.243 0.370,-4.281 -2.576,-4.108 -1.339,0.068 -6.809,0.188 -12.164,0.270 z m -296.623,0.573 c -3.078,3.193 -3.041,3.232 2.366,0.894 1.993,-0.830 2.263,-1.210 1.812,-2.437 -0.489,-1.264 -1.984,-0.662 -4.178,1.543 z m 264.639,0.838 c -0.307,0.304 -0.540,0.799 -0.542,1.067 -0.002,0.305 -0.275,1.145 -0.623,1.832 -0.581,1.220 -0.582,1.449 0.021,3.098 0.790,2.108 2.007,3.187 7.798,7.008 2.209,1.428 4.076,2.740 4.190,2.855 0.114,0.115 5.294,3.665 11.541,7.910 9.218,6.213 11.505,7.605 12.004,7.301 1.458,-0.909 4.814,-5.517 6.827,-9.406 1.160,-2.249 2.129,-4.308 2.131,-4.614 0.002,-0.268 -0.912,-0.923 -2.018,-1.388 -1.068,-0.465 -3.204,-1.435 -4.653,-2.170 -2.402,-1.123 -9.001,-4.185 -13.654,-6.317 -2.555,-1.162 -4.653,-2.131 -11.137,-5.154 -5.492,-2.558 -5.836,-2.636 -8.513,-2.614 -1.874,0.026 -2.985,0.249 -3.369,0.591 z m -129.983,2.272 c -0.962,0.950 -1.771,1.977 -1.772,2.207 -0.002,0.267 0.910,1.191 2.052,2.116 l 2.093,1.618 2.154,-2.128 2.154,-2.128 -0.255,-2.028 c -0.146,-1.071 -0.407,-2.182 -0.597,-2.451 -0.569,-0.729 -3.791,0.818 -5.830,2.795 z m -129.280,-0.095 c -0.161,1.375 -0.362,3.019 -0.518,3.630 -0.354,1.757 0.412,1.379 2.148,-1.057 1.233,-1.637 1.544,-2.400 1.357,-3.128 -0.298,-1.340 -0.868,-1.917 -1.862,-1.923 -0.765,-0.005 -0.881,0.224 -1.124,2.479 z m 232.628,0.262 c -1.531,0.296 -3.140,0.630 -3.599,0.743 -0.612,0.110 -11.334,8.422 -25.901,20.037 -0.307,0.265 -1.767,1.366 -3.189,2.504 -1.422,1.139 -2.576,2.279 -2.577,2.509 -0.001,0.229 0.528,1.265 1.133,2.263 1.174,1.843 1.174,1.843 2.782,1.623 0.880,-0.147 5.127,-0.389 9.450,-0.554 5.394,-0.234 7.958,-0.487 8.266,-0.791 0.231,-0.266 3.004,-3.500 6.163,-7.153 6.086,-7.077 6.355,-7.343 9.244,-10.691 1.579,-1.788 2.004,-2.626 2.631,-5.071 l 0.706,-2.940 -0.985,-1.498 c -0.568,-0.844 -1.061,-1.535 -1.138,-1.536 -0.114,-5.4e-4 -1.454,0.258 -2.986,0.556 z m -14.654,0.828 c -25.993,3.667 -29.017,4.108 -29.362,4.297 -0.153,0.113 -0.310,0.801 -0.315,1.527 -0.010,1.568 -0.506,1.527 5.736,0.188 5.361,-1.191 14.247,-3.050 16.085,-3.383 0.957,-0.185 2.488,-0.482 3.446,-0.705 0.957,-0.224 2.565,-0.558 3.638,-0.743 2.450,-0.482 4.633,-0.966 6.319,-1.453 1.226,-0.375 1.187,-0.375 -0.763,-0.233 -1.147,0.069 -3.329,0.285 -4.784,0.506 z m -208.508,2.293 c 0.275,5.088 0.162,4.743 6.259,14.878 2.347,3.915 6.474,10.825 9.201,15.355 2.688,4.529 5.112,8.483 5.378,8.753 1.026,1.115 11.742,-6.239 12.329,-8.493 0.195,-0.725 -0.562,-1.839 -4.055,-6.182 -2.391,-2.921 -4.404,-5.381 -4.518,-5.496 -0.190,-0.192 -8.010,-9.878 -11.616,-14.375 -3.606,-4.535 -4.405,-5.190 -8.334,-6.973 -2.098,-0.930 -4.043,-1.707 -4.349,-1.709 -0.420,-0.043 -0.501,0.723 -0.293,4.243 z m -14.707,-2.995 c -4.446,1.502 -5.252,1.995 -7.178,4.316 -1.001,1.179 -6.626,7.839 -12.520,14.764 -5.856,6.963 -10.672,12.787 -10.673,12.978 -0.005,1.032 10.232,9.280 11.494,9.287 0.267,0.002 2.698,-3.502 5.363,-7.731 2.703,-4.229 6.758,-10.630 9.036,-14.173 8.031,-12.535 7.799,-12.039 8.054,-16.283 0.212,-3.479 0.139,-4.130 -0.472,-4.134 -0.153,-10e-4 -1.532,0.450 -3.103,0.976 z m 221.095,3.443 c -3.906,0.818 -7.698,1.636 -8.426,1.861 -1.226,0.336 -2.796,0.671 -11.297,2.379 -3.599,0.704 -5.821,1.264 -6.971,1.716 -0.843,0.300 -0.843,0.339 -0.278,1.757 1.884,4.601 6.651,13.159 7.378,13.163 0.153,7.5e-4 0.882,-0.491 1.574,-1.061 0.692,-0.569 2.805,-2.239 4.688,-3.681 1.883,-1.480 5.187,-4.023 7.340,-5.692 2.151,-1.669 6.532,-5.047 9.760,-7.514 3.189,-2.466 5.803,-4.592 5.803,-4.669 0.002,-0.267 -0.342,-0.192 -9.572,1.739 z m -214.082,0.653 c -2.624,3.962 -2.625,4.038 -3.251,12.717 -0.210,3.135 -0.585,8.219 -0.833,11.278 -1.321,16.132 -1.575,20.109 -1.308,20.340 0.417,0.462 8.791,0.856 12.044,0.570 l 3.023,-0.249 -0.200,-4.820 c -0.337,-7.422 -0.543,-11.363 -0.935,-15.955 -0.176,-2.334 -0.527,-7.652 -0.731,-11.861 -0.204,-4.208 -0.563,-7.997 -0.790,-8.419 -0.642,-1.227 -4.393,-7.102 -4.584,-7.103 -0.076,-3.8e-4 -1.157,1.599 -2.430,3.504 z m 251.097,1.024 c -0.920,0.377 -2.109,0.905 -2.645,1.093 -0.92,0.338 -1.075,0.681 -1.317,2.745 -0.161,1.375 -0.131,2.714 0.057,3.213 0.226,0.422 0.565,1.304 0.791,1.955 0.450,1.379 2.257,6.172 2.709,7.283 0.904,2.185 5.648,14.760 5.646,14.989 -6.5e-4,0.114 0.224,0.766 0.527,1.418 0.301,0.690 1.054,2.683 1.732,4.485 2.859,7.781 2.367,7.013 4.472,6.720 3.215,-0.478 8.852,-2.815 12.423,-5.165 l 2.188,-1.440 -0.755,-1.458 c -0.454,-0.767 -1.287,-2.149 -1.893,-3.032 -0.606,-0.883 -1.099,-1.689 -1.098,-1.804 6.4e-4,-0.114 -0.945,-1.803 -2.119,-3.761 -2.385,-3.992 -2.877,-4.875 -4.769,-8.175 -0.718,-1.266 -2.649,-4.567 -4.277,-7.293 -3.331,-5.604 -4.240,-7.178 -5.034,-8.751 -0.453,-0.959 -3.917,-3.657 -4.720,-3.700 -0.153,-0.037 -1.034,0.299 -1.916,0.676 z M 153.044,408.326 c -2.761,1.168 -5.522,2.338 -6.135,2.640 -0.651,0.263 -2.262,0.942 -3.643,1.507 -1.380,0.565 -3.067,1.243 -3.757,1.545 -2.147,0.904 -3.643,1.545 -6.595,2.751 -4.639,1.922 -6.557,2.828 -6.750,3.095 -0.192,0.343 1.811,3.989 4.048,7.292 1.971,2.956 4.820,6.110 5.509,6.114 0.267,0.002 2.923,-2.850 5.928,-6.389 3.004,-3.500 5.854,-6.773 6.278,-7.305 0.462,-0.532 1.695,-1.978 2.773,-3.234 1.040,-1.255 2.003,-2.358 2.118,-2.473 0.114,-0.113 1.540,-1.788 3.158,-3.691 2.812,-3.310 3.623,-4.644 2.511,-4.191 -0.230,0.113 -2.722,1.169 -5.445,2.338 z m 40.745,-1.703 c -6.5e-4,0.114 0.227,0.421 0.493,0.691 0.265,0.269 1.556,1.884 2.923,3.575 1.328,1.690 3.037,3.766 3.796,4.650 0.721,0.845 3.037,3.690 5.126,6.265 8.123,10.108 10.441,12.723 11.054,12.459 1.035,-0.376 6.120,-6.503 8.052,-9.705 1.313,-2.172 1.740,-3.240 1.513,-3.624 -0.189,-0.307 -2.400,-1.429 -4.919,-2.477 -2.518,-1.047 -5.112,-2.173 -5.722,-2.444 -0.648,-0.271 -3.891,-1.706 -7.248,-3.142 -3.356,-1.435 -8.011,-3.452 -10.299,-4.499 -4.157,-1.823 -4.768,-2.056 -4.770,-1.750 z m 216.655,3.952 c -0.308,0.495 -1.206,3.397 -1.951,6.413 -0.783,3.017 -1.802,7.142 -2.312,9.127 -0.508,1.985 -0.863,3.743 -0.750,3.896 0.189,0.345 7.723,0.391 11.015,0.026 l 2.296,-0.215 0.244,-2.484 c 0.245,-2.599 0.095,-3.135 -1.576,-4.981 -0.455,-0.538 -1.139,-1.307 -1.519,-1.730 -0.379,-0.460 -1.210,-2.264 -1.849,-4.027 -0.639,-1.801 -1.507,-3.757 -1.924,-4.333 -0.455,-0.653 -0.680,-1.342 -0.524,-1.800 0.350,-1.068 -0.414,-0.958 -1.148,0.107 z m -113.239,3.788 c -0.026,4.130 0.048,4.551 1.143,6.929 1.208,2.608 3.828,5.722 4.746,5.727 0.535,-0.037 3.429,-4.224 3.434,-4.989 10e-4,-0.191 -0.568,-0.883 -1.291,-1.499 -2.016,-1.810 -2.656,-3.496 -2.369,-6.593 0.162,-1.643 0.092,-2.676 -0.174,-2.831 -0.609,-0.386 -4.238,-1.249 -4.888,-1.177 -0.458,0.037 -0.578,0.838 -0.600,4.433 z m 136.374,-2.806 c -3.8e-4,0.076 0.945,1.764 2.119,3.722 1.173,1.957 2.423,4.068 2.801,4.721 0.378,0.614 2.915,4.951 5.717,9.597 2.763,4.644 5.186,8.790 5.413,9.212 1.285,2.378 3.408,5.566 3.714,5.568 1.071,0.005 12.226,-10.406 12.232,-11.362 9.6e-4,-0.153 -0.912,-0.885 -2.017,-1.656 -1.066,-0.733 -5.675,-3.859 -10.170,-6.908 -4.494,-3.048 -10.666,-7.217 -13.713,-9.301 -5.180,-3.512 -6.095,-4.053 -6.098,-3.594 z m -15.343,0.901 c -0.464,0.915 -0.146,5.201 0.460,5.969 0.835,1.037 1.068,0.350 1.089,-3.129 0.016,-2.945 -0.092,-3.634 -0.551,-3.637 -0.306,-0.002 -0.728,0.339 -0.999,0.797 z m -82.372,3.746 c -0.847,0.950 -1.698,2.590 -2.244,4.232 -1.325,4.161 -4.257,8.236 -8.756,12.186 -0.884,0.797 -1.577,1.558 -1.463,1.673 0.342,0.307 23.603,-0.621 23.605,-0.966 0.001,-0.191 -0.376,-0.958 -0.868,-1.764 -0.832,-1.382 -1.211,-2.110 -2.833,-5.830 -0.791,-1.840 -2.406,-6.823 -3.078,-9.504 -0.373,-1.493 -0.487,-1.609 -1.711,-1.616 -1.032,-0.005 -1.531,0.297 -2.648,1.590 z m 68.763,1.373 c -1.039,1.179 -2.079,2.320 -2.271,2.548 -0.231,0.228 -1.772,2.054 -3.466,4.033 -1.656,1.978 -3.697,4.299 -4.506,5.136 -0.770,0.836 -1.310,1.598 -1.158,1.752 0.152,0.116 2.370,0.129 4.971,0.068 5.241,-0.159 5.164,-0.121 5.794,-3.178 0.158,-0.917 0.863,-3.628 1.490,-6.034 1.682,-6.186 1.722,-6.492 1.339,-6.494 -0.191,-10e-4 -1.191,0.948 -2.193,2.166 z m -221.612,-0.272 c 0.440,3.024 1.072,12.360 1.053,15.497 -0.005,1.338 0.165,4.285 0.342,6.504 0.215,2.219 0.463,5.663 0.565,7.691 0.102,1.989 0.320,3.865 0.472,4.095 0.530,0.882 8.690,-1.209 13.293,-3.362 1.380,-0.641 2.570,-1.322 2.686,-1.474 0.115,-0.190 -1.018,-2.454 -2.532,-5.026 -1.475,-2.609 -3.027,-5.258 -3.368,-5.872 -0.378,-0.652 -1.589,-2.725 -2.725,-4.606 -1.135,-1.919 -2.574,-4.414 -3.217,-5.565 -0.605,-1.151 -2.081,-3.722 -3.292,-5.719 -1.173,-1.957 -2.119,-3.723 -2.118,-3.838 0.001,-0.153 -0.188,-0.459 -0.454,-0.729 -0.798,-0.807 -1.071,0.070 -0.703,2.405 z m -15.340,0.365 c -1.120,1.867 -2.279,3.696 -2.510,4.115 -1.082,1.867 -4.173,6.936 -4.790,7.811 -0.385,0.532 -1.042,1.561 -1.467,2.286 -0.424,0.724 -2.395,4.001 -4.442,7.240 -2.008,3.238 -3.631,6.021 -3.518,6.136 0.227,0.422 5.833,3.057 8.161,3.912 3.244,1.167 7.789,2.265 8.096,1.961 0.384,-0.379 1.035,-6.725 1.544,-14.984 0.550,-8.831 1.172,-16.707 1.495,-19.612 0.161,-1.337 0.128,-2.179 -0.101,-2.181 -0.191,-10e-4 -1.309,1.483 -2.468,3.312 z m 253.113,2.872 c 0.075,0.191 0.494,0.500 0.951,0.732 0.762,0.425 0.762,0.348 0.503,-1.029 -0.369,-2.144 -0.636,-2.375 -1.178,-1.116 -0.271,0.648 -0.390,1.259 -0.276,1.413 z m -111.104,4.987 c -0.196,0.840 -0.276,1.528 -0.086,1.529 0.535,0.003 1.964,-2.282 1.738,-2.857 -0.338,-0.958 -1.222,-0.237 -1.652,1.328 z M 424.44,430.204 c -0.307,0.304 -1.457,0.756 -2.607,1.017 l -2.068,0.445 -0.448,4.625 c -1.463,14.295 -1.668,16.474 -1.672,17.278 -0.005,0.841 0.147,0.918 2.212,0.931 4.474,0.026 13.624,-1.256 14.240,-2.017 0.269,-0.304 -0.594,-2.987 -2.664,-8.469 -3.689,-9.737 -3.538,-9.315 -4.028,-10.504 -0.226,-0.536 -0.602,-1.610 -0.864,-2.415 -0.526,-1.494 -1.175,-1.766 -2.098,-0.892 z m -18.254,1.572 c -1.761,0.257 -1.914,0.333 -2.420,1.783 -0.272,0.839 -0.546,1.832 -0.548,2.214 -0.002,0.344 -0.158,0.955 -0.390,1.336 -0.193,0.343 -0.622,1.756 -0.975,3.131 -0.980,4.086 -2.505,9.546 -2.699,9.889 -0.386,0.609 1.214,1.613 3.810,2.356 3.169,0.937 12.341,2.178 12.802,1.722 0.153,-0.152 0.509,-2.100 0.714,-4.317 0.526,-4.854 1.671,-17.163 1.676,-17.851 0.002,-0.382 -1.144,-0.504 -5.083,-0.489 -2.754,-0.016 -5.891,0.117 -6.886,0.225 z m -15.610,0.823 c -1.076,0.873 -7.473,8.751 -7.475,9.172 -0.005,1.223 9.976,7.404 13.184,8.188 1.336,0.351 1.607,-0.105 2.821,-4.764 0.587,-2.214 1.212,-4.429 1.407,-4.963 0.155,-0.535 0.507,-1.718 0.781,-2.673 0.273,-0.954 0.624,-2.099 0.818,-2.596 0.194,-0.496 0.352,-1.297 0.355,-1.795 l 0.005,-0.956 -5.660,-0.032 c -3.977,-0.021 -5.852,0.117 -6.237,0.421 z m -10.752,0.700 c -2.908,0.212 -5.281,0.541 -5.283,0.732 -0.005,1.070 5.887,6.843 6.996,6.850 0.420,0.003 6.428,-6.807 6.701,-7.608 0.194,-0.496 -1.985,-0.509 -8.414,0.026 z" />
  </g>
  <g id="layer2">
    <g
       transform="matrix(0.160,-0.022,0.022,0.160,71.637,67.570)"
       style="fill:#ffffff"
       id="islands">
      <g
         transform="matrix(0.602,-0.061,0.061,0.602,672.575,354.358)"
         id="g2414">
        <path
           d="m 33.179,485.777 h 32.507 l 13.994,9.305 4.590,13.921 v 9.330 l -9.305,23.201 v 27.916 l -18.586,18.561 -13.896,9.354 -46.477,-4.689 -18.610,-18.561 -27.891,-9.330 -9.305,-9.280 V 541.535 L -45.829,522.949 0.672,485.777 H 33.179"
           id="path2395" />
        <path
           d="m -123.640,590.797 -4.640,-4.714 4.640,-27.866 27.891,-18.610 4.665,-13.920 h 13.945 l -4.640,32.531 -23.251,9.305 -13.945,23.275 h -4.665"
           id="HI_Kauai" />
        <path
           d="m 306.037,660.970 -18.635,14.019 v -4.665 l -27.891,9.280 -23.251,-13.945 -46.477,4.665 -18.610,4.665 -9.280,-23.300 -13.970,-9.280 -4.615,-13.921 -13.970,-13.970 v -13.945 l -13.945,-9.255 46.502,-9.354 23.251,-32.482 13.945,-9.330 13.920,4.615 23.251,41.837 h 4.640 l 4.640,9.330 -4.640,9.280 4.640,13.921 18.610,13.995 4.640,-13.995 h 9.305 v 13.995 l 9.305,4.665 4.640,18.586 13.995,4.590"
           id="HI_Honolulu" />
        <path
           d="m 342.722,671.939 -13.995,37.196 h 4.690 l 65.087,-4.615 55.734,9.256 h 13.945 l 27.892,-18.562 9.304,-18.610 -18.610,-4.664 -41.787,9.279 -32.531,-4.615 -65.088,-4.664 z"
           id="path2403" />
        <path
           d="m 512.836,707.874 13.945,4.665 23.251,37.196 46.477,-23.226 27.891,4.640 v 4.640 l 37.196,23.275 32.531,9.280 4.640,9.280 v 18.561 l -18.586,18.610 -23.251,9.305 -46.477,18.635 h -32.556 l -9.305,-4.689 -9.280,-55.758 -13.920,-4.665 -9.305,9.256 -27.891,-13.921 -18.585,-18.610 -4.665,-18.561 9.305,-18.610 4.640,-9.305 h 13.945"
           id="path2401" />
        <path
           d="m 415.928,734.262 h 32.507 l 18.610,13.945 9.280,13.945 -4.665,18.561 -41.787,13.995 -4.689,-18.610 -4.590,-13.945 -18.586,-18.561 v -4.714 l 13.921,-4.615"
           id="path2399" />
        <path
           d="m 543.383,832.793 4.640,4.615 4.640,18.586 -37.196,9.305 -13.920,-4.689 9.280,-13.871 32.556,-13.945"
           id="HI_Maui" />
        <path
           d="m 813.821,1232.224 -9.280,9.305 -18.610,-13.945 -46.477,-18.586 -9.354,-13.970 -4.640,-9.280 4.640,-74.393 -32.531,-79.058 -18.610,-18.561 -13.945,-18.586 4.665,-13.995 27.891,-27.866 32.531,-41.812 v -18.585 l -23.226,-32.556 -4.665,-18.586 4.665,-18.635 9.280,-4.640 27.916,4.640 9.280,13.945 41.861,18.635 51.167,9.280 55.782,23.275 37.196,23.226 18.586,23.226 4.640,37.221 23.226,-4.665 9.305,13.896 v 18.635 l 23.251,18.586 32.531,13.921 -9.305,18.610 -51.117,46.477 -41.837,23.300 -37.196,4.640 -41.837,32.506 -23.226,13.921 -32.556,60.472"
           id="HI_Hawaii" />
      </g>
    </g>
  </g>
  <g id="layer4">
    <g
       id="text2360"
       style="fill:#000000">
      <path
         id="path2407"
         d="m 41.929,75.550 q 0,-2.016 0.298,-3.733 0.373,-1.717 0.896,-3.210 l 4.778,-12.245 q 0.746,-1.866 1.642,-3.136 0.896,-1.344 3.136,-1.344 h 7.317 q 2.090,0 2.986,1.344 0.896,1.269 1.717,3.210 l 5.152,12.170 q 0.522,1.493 0.821,3.210 0.373,1.717 0.373,3.733 v 2.314 H 41.929 Z m 11.946,-15.456 -3.509,11.349 H 62.089 L 58.580,60.094 q -0.298,-0.672 -0.672,-0.970 -0.298,-0.298 -0.746,-0.298 h -1.866 q -0.448,0 -0.821,0.298 -0.298,0.298 -0.597,0.970 z m 17.173,31.359 h 0.746 V 75.550 q 0,-2.090 -0.373,-3.808 -0.298,-1.792 -0.896,-3.434 l -5.152,-12.170 q -0.896,-2.165 -1.941,-3.584 -0.970,-1.418 -3.434,-1.418 h -7.317 q -2.538,0 -3.584,1.418 -1.045,1.418 -1.866,3.509 L 42.452,68.307 q -0.597,1.642 -0.970,3.434 -0.298,1.717 -0.298,3.808 V 91.454 H 41.929 V 78.611 h 29.119 z m -21.429,4.032 q 0,1.418 -0.672,2.090 -0.597,0.597 -2.016,0.597 H 35.956 q -1.418,0 -2.090,-0.597 -0.597,-0.672 -0.597,-2.090 V 75.774 q 0,-2.24 0.672,-5.152 0.746,-2.912 2.24,-6.794 l 6.495,-16.949 q 0.448,-1.269 1.344,-1.866 0.970,-0.597 2.464,-0.597 h 20.085 q 1.418,0 2.314,0.597 0.970,0.597 1.418,1.866 l 6.496,16.949 q 1.493,3.882 2.165,6.794 0.746,2.912 0.746,5.152 v 19.711 q 0,1.418 -0.672,2.090 -0.597,0.597 -2.016,0.597 H 65.748 q -1.493,0 -2.24,-0.597 -0.672,-0.672 -0.672,-2.090 V 85.032 h -13.216 z" />
      <path
         id="path2409"
         d="M 129.623,98.174 H 91.617 q -1.418,0 -2.090,-0.597 -0.597,-0.672 -0.597,-2.090 V 47.102 q 0,-1.418 0.597,-2.016 0.672,-0.672 2.090,-0.672 h 11.573 q 1.418,0 2.016,0.672 0.672,0.597 0.672,2.016 v 36.959 h 10.229 v -12.096 q 0,-1.418 0.597,-2.016 0.672,-0.672 2.090,-0.672 h 10.826 q 1.418,0 2.016,0.672 0.672,0.597 0.672,2.016 v 23.519 q 0,1.418 -0.672,2.090 -0.597,0.597 -2.016,0.597 z m -32.554,-6.72 H 124.545 V 75.998 h -0.746 V 90.707 H 97.815 V 51.134 h -0.746 z" />
      <path
         id="path2411"
         d="m 186.393,84.062 q 0,3.434 -1.045,6.271 -0.970,2.762 -3.584,4.778 -2.538,1.941 -7.093,3.061 -4.48,1.12 -11.424,1.12 -6.944,0 -11.498,-1.12 -4.554,-1.12 -7.168,-3.061 -2.538,-2.016 -3.584,-4.778 -0.970,-2.837 -0.970,-6.271 V 58.600 q 0,-3.434 0.970,-6.197 1.045,-2.837 3.584,-4.853 2.613,-2.016 7.168,-3.136 4.554,-1.12 11.498,-1.12 6.944,0 11.424,1.12 4.554,1.12 7.093,3.136 2.613,2.016 3.584,4.853 1.045,2.762 1.045,6.197 z m -8.138,-1.717 V 60.318 q 0,-4.479 -3.210,-7.242 -3.210,-2.837 -11.946,-2.837 -8.736,0 -11.872,2.837 -3.136,2.762 -3.136,7.242 v 22.026 q 0,4.48 3.136,7.317 3.136,2.762 11.872,2.762 8.736,0 11.946,-2.762 3.210,-2.837 3.210,-7.317 z m -29.418,0 V 60.318 q 0,-4.181 2.986,-6.719 2.986,-2.613 11.274,-2.613 8.288,0 11.349,2.613 3.061,2.538 3.061,6.719 v 22.026 q 0,4.181 -3.061,6.794 -3.061,2.538 -11.349,2.538 -8.288,0 -11.274,-2.538 -2.986,-2.613 -2.986,-6.794 z m 8.138,-0.970 q 0,1.493 1.12,2.538 1.12,0.970 5.152,0.970 4.032,0 5.152,-0.970 1.12,-1.045 1.12,-2.538 V 61.288 q 0,-1.418 -1.12,-2.389 -1.12,-1.045 -5.152,-1.045 -4.032,0 -5.152,1.045 -1.12,0.970 -1.12,2.389 z" />
      <path
         id="path2413"
         d="m 203.889,91.454 h 0.746 V 71.667 h 28.672 v 19.786 h 0.746 V 51.134 h -0.746 v 19.786 h -28.672 V 51.134 h -0.746 z m 6.197,6.72 h -11.573 q -1.418,0 -2.090,-0.597 -0.597,-0.672 -0.597,-2.090 V 47.102 q 0,-1.418 0.597,-2.016 0.672,-0.672 2.090,-0.672 h 11.573 q 1.418,0 2.016,0.672 0.672,0.597 0.672,2.016 v 16.202 h 12.469 V 47.102 q 0,-1.418 0.597,-2.016 0.672,-0.672 2.090,-0.672 h 11.573 q 1.418,0 2.016,0.672 0.672,0.597 0.672,2.016 v 48.383 q 0,1.418 -0.672,2.090 -0.597,0.597 -2.016,0.597 h -11.573 q -1.418,0 -2.090,-0.597 -0.597,-0.672 -0.597,-2.090 V 78.910 h -12.469 v 16.575 q 0,1.418 -0.672,2.090 -0.597,0.597 -2.016,0.597 z" />
      <path
         id="path2415"
         d="m 260.096,75.550 q 0,-2.016 0.298,-3.733 0.373,-1.717 0.896,-3.210 l 4.778,-12.245 q 0.746,-1.866 1.642,-3.136 0.896,-1.344 3.136,-1.344 h 7.317 q 2.090,0 2.986,1.344 0.896,1.269 1.717,3.210 l 5.152,12.170 q 0.522,1.493 0.821,3.210 0.373,1.717 0.373,3.733 v 2.314 h -29.12 z m 11.946,-15.456 -3.509,11.349 h 11.722 l -3.509,-11.349 q -0.298,-0.672 -0.672,-0.970 -0.298,-0.298 -0.746,-0.298 h -1.866 q -0.448,0 -0.821,0.298 -0.298,0.298 -0.597,0.970 z m 17.173,31.359 h 0.746 V 75.550 q 0,-2.090 -0.373,-3.808 -0.298,-1.792 -0.896,-3.434 l -5.152,-12.170 q -0.896,-2.165 -1.941,-3.584 -0.970,-1.418 -3.434,-1.418 h -7.317 q -2.538,0 -3.584,1.418 -1.045,1.418 -1.866,3.509 l -4.778,12.245 q -0.597,1.642 -0.970,3.434 -0.298,1.717 -0.298,3.808 v 15.903 h 0.746 V 78.611 h 29.12 z m -21.429,4.032 q 0,1.418 -0.672,2.090 -0.597,0.597 -2.016,0.597 h -10.976 q -1.418,0 -2.090,-0.597 -0.597,-0.672 -0.597,-2.090 V 75.774 q 0,-2.24 0.672,-5.152 0.746,-2.912 2.24,-6.794 l 6.496,-16.949 q 0.448,-1.269 1.344,-1.866 0.970,-0.597 2.464,-0.597 h 20.085 q 1.418,0 2.314,0.597 0.970,0.597 1.418,1.866 l 6.496,16.949 q 1.493,3.882 2.165,6.794 0.746,2.912 0.746,5.152 v 19.711 q 0,1.418 -0.672,2.090 -0.597,0.597 -2.016,0.597 h -11.274 q -1.493,0 -2.24,-0.597 -0.672,-0.672 -0.672,-2.090 V 85.032 h -13.216 z" />
      <path
         id="path2417"
         d="m 348.368,98.174 h -23.594 q -1.418,0 -2.090,-0.597 -0.597,-0.672 -0.597,-2.090 v -8.735 q 0,-1.418 0.597,-2.016 0.672,-0.672 2.090,-0.672 h 20.085 q 0.970,0 1.418,-0.597 0.522,-0.672 0.522,-1.568 0,-1.269 -0.522,-1.866 -0.448,-0.597 -1.418,-0.672 l -11.2,-1.568 q -5.226,-0.746 -8.437,-3.434 -3.136,-2.688 -3.136,-8.959 v -7.84 q 0,-6.346 4.106,-9.706 4.106,-3.434 11.349,-3.434 h 20.906 q 1.418,0 2.016,0.672 0.672,0.597 0.672,2.016 v 8.885 q 0,1.418 -0.672,2.090 -0.597,0.597 -2.016,0.597 h -17.397 q -0.970,0 -1.493,0.672 -0.522,0.597 -0.522,1.568 0,0.970 0.522,1.642 0.522,0.672 1.493,0.746 l 11.125,1.493 q 5.226,0.746 8.437,3.434 3.210,2.688 3.210,8.96 v 7.839 q 0,6.346 -4.181,9.781 -4.106,3.36 -11.274,3.36 z m 6.048,-47.039 h -16.576 q -3.434,0 -5.525,1.941 -2.090,1.866 -2.090,4.853 v 6.122 q 0,3.061 1.194,4.256 1.269,1.119 3.210,1.493 l 15.754,3.210 q 2.090,0.448 3.285,1.792 1.269,1.269 1.269,4.778 v 4.330 q 0,2.986 -2.090,4.928 -2.016,1.866 -5.450,1.866 h -18.592 v 0.746 h 18.592 q 3.808,0 6.048,-2.090 2.24,-2.165 2.24,-5.450 v -4.330 q 0,-3.882 -1.493,-5.376 -1.418,-1.493 -3.658,-1.941 l -15.754,-3.210 q -1.717,-0.298 -2.762,-1.344 -1.045,-1.045 -1.045,-3.658 v -6.122 q 0,-2.613 1.866,-4.330 1.866,-1.717 5.002,-1.717 h 16.576 z" />
      <path
         id="path2419"
         d="m 396.649,98.174 h -12.096 q -1.418,0 -2.090,-0.597 -0.597,-0.672 -0.597,-2.090 V 58.824 h -10.976 q -1.418,0 -2.090,-0.597 -0.597,-0.672 -0.597,-2.090 v -9.034 q 0,-1.418 0.597,-2.016 0.672,-0.672 2.090,-0.672 h 39.424 q 1.418,0 2.016,0.672 0.672,0.597 0.672,2.016 v 9.034 q 0,1.418 -0.672,2.090 -0.597,0.597 -2.016,0.597 h -10.976 v 36.661 q 0,1.418 -0.672,2.090 -0.597,0.597 -2.016,0.597 z m -6.421,-6.72 h 0.746 V 51.880 h 15.306 v -0.746 h -31.36 v 0.746 h 15.306 z" />
      <path
         id="path2421"
         d="m 424.887,75.550 q 0,-2.016 0.298,-3.733 0.373,-1.717 0.896,-3.210 l 4.778,-12.245 q 0.746,-1.866 1.642,-3.136 0.896,-1.344 3.136,-1.344 h 7.317 q 2.090,0 2.986,1.344 0.896,1.269 1.717,3.210 l 5.152,12.170 q 0.522,1.493 0.821,3.210 0.373,1.717 0.373,3.733 v 2.314 h -29.12 z m 11.946,-15.456 -3.509,11.349 h 11.722 l -3.509,-11.349 q -0.298,-0.672 -0.672,-0.970 -0.298,-0.298 -0.746,-0.298 h -1.866 q -0.448,0 -0.821,0.298 -0.298,0.298 -0.597,0.970 z m 17.173,31.359 h 0.746 V 75.550 q 0,-2.090 -0.373,-3.808 -0.298,-1.792 -0.895,-3.434 l -5.152,-12.170 q -0.896,-2.165 -1.941,-3.584 -0.970,-1.418 -3.434,-1.418 h -7.317 q -2.538,0 -3.584,1.418 -1.045,1.418 -1.866,3.509 l -4.778,12.245 q -0.597,1.642 -0.970,3.434 -0.298,1.717 -0.298,3.808 v 15.903 h 0.746 V 78.611 h 29.12 z m -21.429,4.032 q 0,1.418 -0.672,2.090 -0.597,0.597 -2.016,0.597 h -10.976 q -1.418,0 -2.090,-0.597 -0.597,-0.672 -0.597,-2.090 V 75.774 q 0,-2.24 0.672,-5.152 0.746,-2.912 2.24,-6.794 l 6.496,-16.949 q 0.448,-1.269 1.344,-1.866 0.970,-0.597 2.464,-0.597 h 20.085 q 1.418,0 2.314,0.597 0.970,0.597 1.418,1.866 L 459.757,63.827 q 1.493,3.882 2.165,6.794 0.746,2.912 0.746,5.152 v 19.711 q 0,1.418 -0.672,2.090 -0.597,0.597 -2.016,0.597 h -11.274 q -1.493,0 -2.24,-0.597 -0.672,-0.672 -0.672,-2.090 V 85.032 h -13.216 z" />
      <path
         id="path2423"
         d="m 494.358,98.174 h -12.096 q -1.418,0 -2.090,-0.597 -0.597,-0.672 -0.597,-2.090 V 58.824 h -10.976 q -1.418,0 -2.090,-0.597 -0.597,-0.672 -0.597,-2.090 v -9.034 q 0,-1.418 0.597,-2.016 0.672,-0.672 2.090,-0.672 H 508.022 q 1.418,0 2.016,0.672 0.672,0.597 0.672,2.016 v 9.034 q 0,1.418 -0.672,2.090 -0.597,0.597 -2.016,0.597 h -10.975 v 36.661 q 0,1.418 -0.672,2.090 -0.597,0.597 -2.016,0.597 z m -6.421,-6.72 h 0.746 V 51.880 h 15.306 v -0.746 h -31.36 v 0.746 h 15.306 z" />
      <path
         id="path2425"
         d="m 555.304,98.174 h -34.645 q -1.418,0 -2.090,-0.597 -0.597,-0.672 -0.597,-2.090 V 47.102 q 0,-1.418 0.597,-2.016 0.672,-0.672 2.090,-0.672 h 34.645 q 1.418,0 2.016,0.672 0.672,0.597 0.672,2.016 v 8.736 q 0,1.418 -0.672,2.090 -0.597,0.597 -2.016,0.597 h -20.608 v 5.749 h 14.56 q 1.418,0 2.016,0.672 0.672,0.597 0.672,2.016 v 7.989 q 0,1.418 -0.672,2.090 -0.597,0.597 -2.016,0.597 h -14.56 v 6.421 h 20.608 q 1.418,0 2.016,0.672 0.672,0.597 0.672,2.016 v 8.735 q 0,1.418 -0.672,2.090 -0.597,0.597 -2.016,0.597 z m -4.032,-7.466 h -24.416 V 71.368 h 18.368 v -0.746 h -18.368 V 51.880 h 24.416 v -0.746 h -25.162 v 40.319 h 25.162 z" />
    </g>
  </g>
  <g id="layer5">
    <path
       d="m 163.097,49.921 c -5.906,0 -10.033,0.906 -12.390,3.037 -6.3e-4,5.74e-4 -0.001,0.001 -0.002,0.002 -2.241,1.978 -3.390,4.653 -3.390,7.816 v 22.027 c 0,3.167 1.149,5.862 3.390,7.890 a 0.775,0.775 0 0 0 0.008,0.007 c 2.358,2.078 6.479,2.955 12.384,2.955 5.905,0 10.047,-0.880 12.451,-2.949 a 0.775,0.775 0 0 0 0.008,-0.007 c 2.292,-2.025 3.472,-4.724 3.472,-7.896 V 60.777 c 0,-3.167 -1.180,-5.846 -3.472,-7.822 -3.9e-4,-3.44e-4 -0.002,3.44e-4 -0.002,0 -2.401,-2.121 -6.549,-3.033 -12.457,-3.033 z M 52.681,50.818 c -1.836,0 -3.334,0.545 -4.208,1.732 -0.747,1.014 -1.398,2.244 -1.964,3.687 a 0.775,0.775 0 0 0 0,0.002 L 41.728,68.484 A 0.775,0.775 0 0 0 41.722,68.5 c -0.411,1.131 -0.745,2.313 -1.001,3.542 a 0.775,0.775 0 0 0 -0.003,0.025 c -0.208,1.198 -0.308,2.511 -0.308,3.941 v 15.902 a 0.775,0.775 0 0 0 0.775,0.775 h 0.746 a 0.775,0.775 0 0 0 0.775,-0.775 V 79.845 h 27.568 v 12.066 a 0.775,0.775 0 0 0 0.775,0.775 h 0.748 a 0.775,0.775 0 0 0 0.775,-0.775 V 76.009 c 0,-1.436 -0.129,-2.755 -0.390,-3.960 C 71.975,70.819 71.668,69.633 71.255,68.5 a 0.775,0.775 0 0 0 -0.013,-0.037 l -5.150,-12.164 -0.002,-0.005 c -0.611,-1.476 -1.281,-2.714 -2.021,-3.722 -0.820,-1.194 -2.281,-1.751 -4.070,-1.751 z m 44.386,0 a 0.775,0.775 0 0 0 -0.775,0.775 v 40.318 a 0.775,0.775 0 0 0 0.775,0.775 h 27.476 a 0.775,0.775 0 0 0 0.775,-0.775 V 76.457 a 0.775,0.775 0 0 0 -0.775,-0.775 h -0.746 a 0.775,0.775 0 0 0 -0.775,0.775 V 90.390 H 98.589 V 51.593 a 0.775,0.775 0 0 0 -0.775,-0.775 z m 106.820,0 a 0.775,0.775 0 0 0 -0.775,0.775 v 40.318 a 0.775,0.775 0 0 0 0.775,0.775 h 0.748 a 0.775,0.775 0 0 0 0.775,-0.775 V 72.902 h 27.121 v 19.009 a 0.775,0.775 0 0 0 0.775,0.775 h 0.746 a 0.775,0.775 0 0 0 0.775,-0.775 V 51.593 a 0.775,0.775 0 0 0 -0.775,-0.775 h -0.746 A 0.775,0.775 0 0 0 232.533,51.593 V 70.603 H 205.412 V 51.593 a 0.775,0.775 0 0 0 -0.775,-0.775 z m 66.958,0 c -1.836,0 -3.334,0.545 -4.208,1.732 -0.747,1.014 -1.398,2.244 -1.964,3.687 a 0.775,0.775 0 0 0 0,0.002 l -4.777,12.244 a 0.775,0.775 0 0 0 -0.006,0.015 c -0.411,1.131 -0.745,2.313 -1.001,3.542 a 0.775,0.775 0 0 0 -0.004,0.025 c -0.208,1.197 -0.310,2.510 -0.310,3.941 v 15.902 a 0.775,0.775 0 0 0 0.775,0.775 h 0.746 a 0.775,0.775 0 0 0 0.775,-0.775 V 79.845 h 27.570 v 12.066 a 0.775,0.775 0 0 0 0.775,0.775 h 0.746 a 0.775,0.775 0 0 0 0.775,-0.775 V 76.009 c 0,-1.435 -0.127,-2.754 -0.388,-3.960 -0.206,-1.230 -0.515,-2.415 -0.927,-3.548 a 0.775,0.775 0 0 0 -0.013,-0.037 l -5.150,-12.164 -0.002,-0.005 c -0.611,-1.476 -1.281,-2.714 -2.021,-3.722 -0.820,-1.193 -2.280,-1.751 -4.068,-1.751 z m 66.992,0 c -1.217,0 -2.341,0.170 -3.357,0.527 -1.013,0.356 -1.915,0.899 -2.687,1.615 -0.771,0.689 -1.368,1.500 -1.761,2.414 -0.394,0.915 -0.583,1.928 -0.583,3.013 v 6.121 c 0,1.070 0.102,2.000 0.328,2.802 0.225,0.802 0.578,1.486 1.093,2.001 a 0.775,0.775 0 0 0 0.035,0.033 c 0.958,0.845 2.166,1.401 3.568,1.671 h 0.004 c 0.001,2.85e-4 0.002,0.001 0.004,0.002 l 15.740,3.207 c 6.6e-4,1.42e-4 0.001,-1.43e-4 0.002,0 l 0.006,0.002 c 1.263,0.272 2.185,0.788 2.859,1.546 a 0.775,0.775 0 0 0 0.031,0.033 c 0.593,0.593 1.042,1.984 1.042,4.230 v 4.330 c 0,1.809 -0.595,3.199 -1.843,4.359 -0.591,0.548 -1.280,0.955 -2.093,1.234 -0.813,0.278 -1.753,0.425 -2.828,0.425 h -18.591 a 0.775,0.775 0 0 0 -0.775,0.775 v 0.746 a 0.775,0.775 0 0 0 0.775,0.775 h 18.591 c 1.340,0 2.567,-0.185 3.669,-0.566 1.102,-0.380 2.079,-0.960 2.906,-1.732 a 0.775,0.775 0 0 0 0.01,-0.009 c 1.634,-1.579 2.476,-3.641 2.476,-6.007 v -4.330 c 0,-2.682 -0.487,-4.680 -1.714,-5.914 -0.527,-0.553 -1.135,-1.018 -1.814,-1.378 -0.681,-0.361 -1.432,-0.620 -2.244,-0.783 h -0.002 l -15.751,-3.210 a 0.775,0.775 0 0 0 -0.021,-0.003 c -1.020,-0.177 -1.775,-0.556 -2.347,-1.128 -0.232,-0.232 -0.438,-0.586 -0.585,-1.103 -0.147,-0.517 -0.232,-1.188 -0.232,-2.007 v -6.121 c 0,-0.778 0.138,-1.466 0.404,-2.083 0.266,-0.617 0.662,-1.171 1.212,-1.677 0.543,-0.499 1.171,-0.871 1.910,-1.125 0.738,-0.253 1.591,-0.386 2.566,-0.386 h 16.576 a 0.775,0.775 0 0 0 0.775,-0.775 V 51.593 a 0.775,0.775 0 0 0 -0.775,-0.775 z m 37.082,0 a 0.775,0.775 0 0 0 -0.775,0.775 v 0.746 a 0.775,0.775 0 0 0 0.775,0.775 h 14.531 v 38.796 a 0.775,0.775 0 0 0 0.775,0.775 h 0.746 A 0.775,0.775 0 0 0 391.75,91.912 V 53.115 h 14.531 a 0.775,0.775 0 0 0 0.775,-0.775 V 51.593 a 0.775,0.775 0 0 0 -0.775,-0.775 z m 60.718,0 c -1.836,0 -3.334,0.545 -4.208,1.732 -0.747,1.014 -1.398,2.244 -1.964,3.687 a 0.775,0.775 0 0 0 0,0.002 l -4.779,12.244 a 0.775,0.775 0 0 0 -0.006,0.015 c -0.411,1.131 -0.745,2.313 -1.001,3.542 a 0.775,0.775 0 0 0 -0.004,0.025 c -0.208,1.197 -0.310,2.510 -0.310,3.941 v 15.902 a 0.775,0.775 0 0 0 0.775,0.775 h 0.746 a 0.775,0.775 0 0 0 0.775,-0.775 V 79.845 h 27.570 v 12.066 a 0.775,0.775 0 0 0 0.775,0.775 h 0.746 a 0.775,0.775 0 0 0 0.775,-0.775 V 76.009 c 0,-1.435 -0.127,-2.754 -0.388,-3.960 -0.206,-1.230 -0.515,-2.415 -0.927,-3.548 a 0.775,0.775 0 0 0 -0.013,-0.037 l -5.148,-12.164 -0.002,-0.005 c -0.611,-1.476 -1.281,-2.714 -2.021,-3.722 -0.820,-1.194 -2.281,-1.751 -4.070,-1.751 z m 36.990,0 a 0.775,0.775 0 0 0 -0.775,0.775 v 0.746 a 0.775,0.775 0 0 0 0.775,0.775 h 14.531 v 38.796 a 0.775,0.775 0 0 0 0.775,0.775 h 0.746 a 0.775,0.775 0 0 0 0.775,-0.775 V 53.115 h 14.531 a 0.775,0.775 0 0 0 0.775,-0.775 V 51.593 a 0.775,0.775 0 0 0 -0.775,-0.775 z m 53.478,0 a 0.775,0.775 0 0 0 -0.775,0.775 v 40.318 a 0.775,0.775 0 0 0 0.775,0.775 h 25.164 a 0.775,0.775 0 0 0 0.775,-0.775 v -0.746 a 0.775,0.775 0 0 0 -0.775,-0.775 H 527.632 V 72.603 h 17.591 A 0.775,0.775 0 0 0 546,71.828 v -0.746 a 0.775,0.775 0 0 0 -0.775,-0.775 h -17.591 V 53.115 h 23.640 a 0.775,0.775 0 0 0 0.775,-0.775 V 51.593 a 0.775,0.775 0 0 0 -0.775,-0.775 z M 163.097,52.218 c 5.443,0 9.067,0.909 10.845,2.427 a 0.775,0.775 0 0 0 0.01,0.007 c 1.879,1.558 2.779,3.524 2.779,6.123 v 22.027 c 0,2.596 -0.902,4.590 -2.785,6.199 -1.777,1.470 -5.408,2.357 -10.849,2.357 -5.443,0 -9.046,-0.891 -10.769,-2.353 -1.833,-1.606 -2.716,-3.602 -2.716,-6.203 V 60.777 c 0,-2.602 0.881,-4.572 2.712,-6.128 a 0.775,0.775 0 0 0 0.008,-0.007 c 1.723,-1.508 5.321,-2.421 10.765,-2.421 z M 52.681,53.115 h 7.316 c 1.227,0 1.901,0.334 2.343,0.998 a 0.775,0.775 0 0 0 0.011,0.017 c 0.554,0.785 1.102,1.809 1.634,3.066 l 5.138,12.136 c 0.330,0.947 0.593,1.971 0.785,3.074 a 0.775,0.775 0 0 0 0.005,0.031 c 0.235,1.083 0.355,2.274 0.355,3.570 v 1.539 h -27.568 v -1.539 c 0,-1.300 0.096,-2.496 0.285,-3.587 0.241,-1.109 0.532,-2.142 0.867,-3.099 1.96e-4,-5.6e-4 -1.96e-4,-0.001 0,-0.002 l 4.765,-12.212 0.002,-0.005 c 0.479,-1.198 1.001,-2.189 1.552,-2.970 a 0.775,0.775 0 0 0 0.011,-0.017 c 0.431,-0.647 1.153,-0.998 2.492,-0.998 z m 218.166,0 h 7.318 c 1.227,0 1.898,0.333 2.341,0.998 a 0.775,0.775 0 0 0 0.011,0.017 c 0.554,0.785 1.102,1.809 1.634,3.066 l 5.138,12.136 c 0.330,0.947 0.593,1.971 0.785,3.074 a 0.775,0.775 0 0 0 0.006,0.031 c 0.235,1.083 0.357,2.274 0.357,3.570 v 1.539 h -27.570 v -1.539 c 0,-1.300 0.096,-2.496 0.285,-3.587 0.241,-1.109 0.532,-2.142 0.867,-3.099 1.9e-4,-5.6e-4 -2e-4,-0.001 0,-0.002 l 4.767,-12.212 0.002,-0.005 c 0.479,-1.198 1.001,-2.189 1.552,-2.970 a 0.775,0.775 0 0 0 0.011,-0.017 c 0.432,-0.648 1.151,-0.998 2.490,-0.998 z m 164.792,0 h 7.316 c 1.227,0 1.898,0.333 2.341,0.998 a 0.775,0.775 0 0 0 0.011,0.017 c 0.554,0.785 1.102,1.809 1.634,3.066 l 5.138,12.136 c 0.331,0.948 0.595,1.972 0.787,3.074 a 0.775,0.775 0 0 0 0.006,0.031 c 0.235,1.083 0.355,2.274 0.355,3.570 v 1.539 h -27.570 v -1.539 c 0,-1.300 0.096,-2.496 0.285,-3.587 0.241,-1.109 0.532,-2.142 0.867,-3.099 2e-4,-5.6e-4 -1.9e-4,-0.001 0,-0.002 l 4.767,-12.212 0.002,-0.005 c 0.479,-1.198 1.001,-2.189 1.552,-2.970 a 0.775,0.775 0 0 0 0.011,-0.017 c 0.431,-0.647 1.153,-0.998 2.492,-0.998 z"
       id="path2604"
       style="fill:#ffffff" />
    <path
       d="m 526.109,51.593 v 40.318 h 25.164 v -0.746 h -24.416 v -19.337 h 18.367 V 71.081 H 526.857 V 52.339 h 24.416 V 51.593 Z m -53.478,0 v 0.746 h 15.306 v 39.572 h 0.746 V 52.339 h 15.306 V 51.593 Z m -36.990,0 c -1.692,0 -2.887,0.472 -3.583,1.417 -0.696,0.945 -1.319,2.115 -1.867,3.509 l -4.779,12.244 c -0.398,1.095 -0.721,2.240 -0.970,3.435 -0.199,1.144 -0.298,2.414 -0.298,3.808 v 15.902 h 0.746 V 79.069 h 29.121 v 12.841 h 0.746 V 76.009 c 0,-1.393 -0.124,-2.663 -0.373,-3.808 -0.199,-1.194 -0.498,-2.340 -0.896,-3.435 l -5.150,-12.169 c -0.597,-1.443 -1.244,-2.638 -1.941,-3.583 -0.647,-0.945 -1.792,-1.417 -3.435,-1.417 z m 0,0.746 h 7.316 c 1.393,0 2.389,0.447 2.986,1.343 0.597,0.846 1.169,1.916 1.716,3.210 l 5.152,12.169 c 0.348,0.995 0.623,2.066 0.822,3.210 0.248,1.144 0.373,2.390 0.373,3.734 v 2.314 h -29.121 v -2.314 c 0,-1.344 0.099,-2.589 0.298,-3.734 0.248,-1.144 0.548,-2.215 0.896,-3.210 l 4.779,-12.244 c 0.497,-1.244 1.045,-2.290 1.642,-3.136 0.597,-0.896 1.643,-1.343 3.136,-1.343 z M 374.921,51.593 v 0.746 h 15.306 v 39.572 h 0.746 V 52.339 h 15.306 V 51.593 Z m -37.082,0 c -2.289,0 -4.131,0.647 -5.525,1.941 -1.393,1.244 -2.089,2.862 -2.089,4.853 v 6.121 c 0,2.040 0.398,3.459 1.195,4.255 0.846,0.746 1.914,1.245 3.208,1.494 l 15.755,3.210 c 1.393,0.298 2.488,0.895 3.285,1.791 0.846,0.846 1.269,2.439 1.269,4.779 v 4.330 c 0,1.991 -0.698,3.633 -2.091,4.927 -1.344,1.244 -3.159,1.867 -5.449,1.867 h -18.591 v 0.746 h 18.591 c 2.538,0 4.553,-0.696 6.046,-2.089 1.493,-1.443 2.240,-3.260 2.240,-5.451 v -4.330 c 0,-2.588 -0.498,-4.379 -1.494,-5.375 -0.945,-0.995 -2.164,-1.642 -3.658,-1.941 l -15.753,-3.210 c -1.144,-0.199 -2.066,-0.646 -2.763,-1.343 -0.696,-0.696 -1.044,-1.917 -1.044,-3.660 v -6.121 c 0,-1.742 0.622,-3.187 1.867,-4.332 1.244,-1.144 2.911,-1.716 5.001,-1.716 h 16.576 V 51.593 Z m 0,0 c -2.289,0 -4.131,0.647 -5.525,1.941 -1.393,1.244 -2.089,2.862 -2.089,4.853 v 6.121 c 0,2.040 0.398,3.459 1.195,4.255 0.846,0.746 1.914,1.245 3.208,1.494 l 15.755,3.210 c 1.393,0.298 2.488,0.895 3.285,1.791 0.846,0.846 1.269,2.439 1.269,4.779 v 4.330 c 0,1.991 -0.698,3.633 -2.091,4.927 -1.344,1.244 -3.159,1.867 -5.449,1.867 h -18.591 v 0.746 h 18.591 c 2.538,0 4.553,-0.696 6.046,-2.089 1.493,-1.443 2.240,-3.260 2.240,-5.451 v -4.330 c 0,-2.588 -0.498,-4.379 -1.494,-5.375 -0.945,-0.995 -2.164,-1.642 -3.658,-1.941 l -15.753,-3.210 c -1.144,-0.199 -2.066,-0.646 -2.763,-1.343 -0.696,-0.696 -1.044,-1.917 -1.044,-3.660 v -6.121 c 0,-1.742 0.622,-3.187 1.867,-4.332 1.244,-1.144 2.911,-1.716 5.001,-1.716 h 16.576 V 51.593 Z m -66.992,0 c -1.692,0 -2.887,0.472 -3.583,1.417 -0.696,0.945 -1.319,2.115 -1.867,3.509 l -4.777,12.244 c -0.398,1.095 -0.721,2.240 -0.970,3.435 -0.199,1.144 -0.298,2.414 -0.298,3.808 v 15.902 h 0.746 V 79.069 h 29.121 v 12.841 h 0.746 V 76.009 c 0,-1.393 -0.124,-2.663 -0.373,-3.808 -0.199,-1.194 -0.498,-2.340 -0.896,-3.435 l -5.152,-12.169 c -0.597,-1.443 -1.244,-2.638 -1.941,-3.583 -0.647,-0.945 -1.790,-1.417 -3.433,-1.417 z m 0,0.746 h 7.318 c 1.393,0 2.388,0.447 2.986,1.343 0.597,0.846 1.169,1.916 1.716,3.210 l 5.152,12.169 c 0.348,0.995 0.621,2.066 0.820,3.210 0.248,1.144 0.375,2.390 0.375,3.734 v 2.314 h -29.121 v -2.314 c 0,-1.344 0.099,-2.589 0.298,-3.734 0.248,-1.144 0.548,-2.215 0.896,-3.210 l 4.779,-12.244 c 0.497,-1.244 1.045,-2.290 1.642,-3.136 0.597,-0.896 1.641,-1.343 3.134,-1.343 z M 203.888,51.593 v 40.318 h 0.748 V 72.126 h 28.671 v 19.785 h 0.746 V 51.593 h -0.746 V 71.378 H 204.636 V 51.593 Z m -106.820,0 V 91.911 H 124.544 V 76.456 h -0.746 V 91.165 H 97.814 V 51.593 Z m -44.386,0 c -1.692,0 -2.887,0.472 -3.583,1.417 -0.696,0.945 -1.319,2.115 -1.867,3.509 l -4.779,12.244 c -0.398,1.095 -0.721,2.240 -0.970,3.435 -0.199,1.144 -0.296,2.414 -0.296,3.808 v 15.902 h 0.746 V 79.069 h 29.119 v 12.841 h 0.748 V 76.009 c 0,-1.393 -0.126,-2.663 -0.375,-3.808 -0.199,-1.194 -0.496,-2.340 -0.894,-3.435 L 65.375,56.595 C 64.777,55.151 64.130,53.956 63.433,53.011 62.786,52.065 61.640,51.593 59.998,51.593 Z m 0,0.746 h 7.316 c 1.393,0 2.390,0.447 2.988,1.343 0.597,0.846 1.169,1.916 1.716,3.210 l 5.152,12.169 c 0.348,0.995 0.621,2.066 0.820,3.210 0.248,1.144 0.373,2.390 0.373,3.734 v 2.314 h -29.119 v -2.314 c 0,-1.344 0.099,-2.589 0.298,-3.734 0.248,-1.144 0.548,-2.215 0.896,-3.210 l 4.777,-12.244 c 0.497,-1.244 1.045,-2.290 1.642,-3.136 0.597,-0.896 1.643,-1.343 3.136,-1.343 z M 163.097,50.696 c -5.824,0 -9.782,0.946 -11.873,2.837 -2.090,1.841 -3.134,4.255 -3.134,7.242 v 22.027 c 0,2.986 1.044,5.424 3.134,7.316 2.090,1.841 6.049,2.761 11.873,2.761 5.824,0 9.804,-0.919 11.945,-2.761 2.140,-1.891 3.210,-4.329 3.210,-7.316 V 60.776 c 0,-2.986 -1.070,-5.400 -3.210,-7.242 -2.140,-1.891 -6.121,-2.837 -11.945,-2.837 z m 0,0.746 c 5.525,0 9.308,0.871 11.349,2.613 2.040,1.692 3.060,3.933 3.060,6.720 v 22.027 c 0,2.787 -1.019,5.050 -3.060,6.792 -2.040,1.692 -5.824,2.539 -11.349,2.539 -5.525,0 -9.284,-0.846 -11.275,-2.539 -1.991,-1.742 -2.986,-4.005 -2.986,-6.792 V 60.776 c 0,-2.787 0.995,-5.028 2.986,-6.720 1.991,-1.742 5.750,-2.613 11.275,-2.613 z"
       style="fill:#ffffff"
       id="path2488" />
  </g>
  <g id="layer6">
    <g
       transform="translate(-5.250,0.458)"
       id="text2364"
       style="fill:#000000">
      <path
         d="m 564.619,549.620 h -18.48 q -7.333,0 -10.912,-2.933 -3.52,-2.933 -3.52,-9.034 v -18.304 q 0,-6.101 3.52,-9.034 3.578,-2.933 10.912,-2.933 h 14.666 q 1.114,0 1.584,0.528 0.528,0.469 0.528,1.584 v 7.098 q 0,1.114 -0.528,1.642 -0.469,0.469 -1.584,0.469 h -12.202 q -1.818,0 -2.698,0.762 -0.88,0.704 -0.88,2.170 v 14.021 q 0,1.466 0.645,2.170 0.704,0.704 2.053,0.704 h 5.690 v -9.152 q 0,-1.114 0.469,-1.584 0.528,-0.528 1.642,-0.528 h 9.093 q 1.114,0 1.584,0.528 0.528,0.469 0.528,1.584 v 18.128 q 0,1.114 -0.528,1.642 -0.469,0.469 -1.584,0.469 z m -15.957,-5.28 h 11.674 v -11.792 h -0.586 v 11.205 h -11.088 q -5.925,0 -7.978,-1.584 -1.994,-1.584 -1.994,-5.397 v -16.426 q 0,-3.872 1.818,-5.456 1.818,-1.642 6.981,-1.642 h 10.149 v -0.586 h -10.149 q -5.632,0 -7.509,1.76 -1.877,1.76 -1.877,5.925 v 16.426 q 0,2.053 0.410,3.52 0.469,1.408 1.642,2.346 1.173,0.88 3.226,1.290 2.053,0.410 5.28,0.410 z m -52.794,-31.210 q -0.293,-0.293 -0.469,-0.410 -0.176,-0.117 -0.410,-0.117 -0.234,0 -0.469,0.176 -0.234,0.176 -0.234,0.528 v 31.034 h 0.586 v -30.917 q 0,-0.058 0,-0.117 0.058,-0.058 0.117,-0.058 0.058,0 0.117,0.058 0.117,0.058 0.176,0.117 l 22.176,24.874 v 6.042 h 0.586 v -31.68 h -0.586 v 24.757 z m 3.168,36.490 h -8.8 q -1.114,0 -1.642,-0.469 -0.469,-0.528 -0.469,-1.642 v -38.016 q 0,-1.114 0.469,-1.584 0.528,-0.528 1.642,-0.528 h 6.101 q 1.114,0 1.877,0.352 0.821,0.352 1.584,1.232 l 11.381,13.024 v -12.496 q 0,-1.114 0.469,-1.584 0.528,-0.528 1.642,-0.528 h 8.8 q 1.114,0 1.584,0.528 0.528,0.469 0.528,1.584 v 38.016 q 0,1.114 -0.528,1.642 -0.469,0.469 -1.584,0.469 h -8.8 q -1.114,0 -1.642,-0.469 -0.469,-0.528 -0.469,-1.642 v -7.216 l -10.032,-12.144 v 19.36 q 0,1.114 -0.528,1.642 -0.469,0.469 -1.584,0.469 z m -45.259,0 q -1.114,0 -1.642,-0.469 -0.469,-0.528 -0.469,-1.642 v -6.981 q 0,-1.114 0.469,-1.584 0.528,-0.528 1.642,-0.528 h 5.808 v -19.712 h -5.808 q -1.114,0 -1.642,-0.469 -0.469,-0.528 -0.469,-1.642 v -7.098 q 0,-1.114 0.469,-1.584 0.528,-0.528 1.642,-0.528 h 24.992 q 1.114,0 1.584,0.528 0.528,0.469 0.528,1.584 v 7.098 q 0,1.114 -0.528,1.642 -0.469,0.469 -1.584,0.469 h -5.690 v 19.712 h 5.690 q 1.114,0 1.584,0.528 0.528,0.469 0.528,1.584 v 6.981 q 0,1.114 -0.528,1.642 -0.469,0.469 -1.584,0.469 z m 21.824,-5.28 v -0.586 h -8.976 v -30.506 h 8.976 v -0.586 h -18.656 v 0.586 h 9.093 v 30.506 h -9.093 v 0.586 z m -31.791,5.28 h -14.314 q -7.333,0 -10.912,-2.933 -3.52,-2.933 -3.52,-9.034 v -18.245 q 0,-6.101 3.52,-9.034 3.578,-2.992 10.912,-2.992 h 14.314 q 1.114,0 1.584,0.528 0.528,0.469 0.528,1.584 v 7.098 q 0,1.114 -0.528,1.642 -0.469,0.469 -1.584,0.469 h -11.792 q -1.818,0 -2.698,0.762 -0.88,0.704 -0.88,2.170 v 13.962 q 0,1.466 0.88,2.170 0.88,0.645 2.698,0.645 h 11.792 q 1.114,0 1.584,0.528 0.528,0.469 0.528,1.584 v 6.981 q 0,1.114 -0.528,1.642 -0.469,0.469 -1.584,0.469 z m -3.226,-5.866 h -9.797 q -5.28,0 -7.04,-1.584 -1.76,-1.584 -1.76,-5.397 v -16.426 q 0,-3.872 1.818,-5.456 1.818,-1.642 6.981,-1.642 h 9.797 v -0.586 h -9.797 q -5.632,0 -7.509,1.76 -1.877,1.76 -1.877,5.925 v 16.426 q 0,4.048 1.818,5.808 1.877,1.76 7.568,1.76 h 9.797 z M 378.778,531.844 q 0,-1.584 0.234,-2.933 0.293,-1.349 0.704,-2.522 l 3.754,-9.621 q 0.586,-1.466 1.290,-2.464 0.704,-1.056 2.464,-1.056 h 5.749 q 1.642,0 2.346,1.056 0.704,0.997 1.349,2.522 l 4.048,9.562 q 0.410,1.173 0.645,2.522 0.293,1.349 0.293,2.933 v 1.818 h -22.88 z m 9.386,-12.144 -2.757,8.917 h 9.210 l -2.757,-8.917 q -0.234,-0.528 -0.528,-0.762 -0.234,-0.234 -0.586,-0.234 h -1.466 q -0.352,0 -0.645,0.234 -0.234,0.234 -0.469,0.762 z m 13.493,24.64 h 0.586 v -12.496 q 0,-1.642 -0.293,-2.992 -0.234,-1.408 -0.704,-2.698 l -4.048,-9.562 q -0.704,-1.701 -1.525,-2.816 -0.762,-1.114 -2.698,-1.114 h -5.749 q -1.994,0 -2.816,1.114 -0.821,1.114 -1.466,2.757 l -3.754,9.621 q -0.469,1.290 -0.762,2.698 -0.234,1.349 -0.234,2.992 v 12.496 h 0.586 v -10.090 h 22.88 z m -16.837,3.168 q 0,1.114 -0.528,1.642 -0.469,0.469 -1.584,0.469 h -8.624 q -1.114,0 -1.642,-0.469 -0.469,-0.528 -0.469,-1.642 v -15.488 q 0,-1.76 0.528,-4.048 0.586,-2.288 1.76,-5.338 l 5.104,-13.317 q 0.352,-0.997 1.056,-1.466 0.762,-0.469 1.936,-0.469 h 15.781 q 1.114,0 1.818,0.469 0.762,0.469 1.114,1.466 l 5.104,13.317 q 1.173,3.050 1.701,5.338 0.586,2.288 0.586,4.048 v 15.488 q 0,1.114 -0.528,1.642 -0.469,0.469 -1.584,0.469 h -8.858 q -1.173,0 -1.76,-0.469 -0.528,-0.528 -0.528,-1.642 v -8.213 h -10.384 z m -35.797,-34.261 q 3.109,0 4.576,1.701 1.525,1.701 1.525,4.4 v 4.106 q 0,3.226 -1.232,4.986 -1.232,1.76 -4.869,1.76 h -12.789 v -16.954 z m -6.453,4.693 v 7.509 h 4.4 q 1.525,0 2.053,-0.762 0.528,-0.821 0.528,-1.994 v -1.994 q 0,-1.173 -0.528,-1.936 -0.528,-0.821 -2.053,-0.821 z m -6.336,26.4 v -13.610 h 16.602 q 3.344,0 4.928,1.466 1.584,1.408 1.584,4.282 v 7.861 h 0.586 v -7.861 q 0,-3.050 -1.76,-4.634 -1.76,-1.642 -5.338,-1.642 h -0.645 q 2.112,-0.645 2.816,-2.346 0.704,-1.76 0.704,-4.458 v -4.048 q 0,-2.874 -1.642,-4.752 -1.642,-1.936 -5.045,-1.936 h -13.376 v 31.68 z m 4.224,5.28 h -9.034 q -1.114,0 -1.642,-0.469 -0.469,-0.528 -0.469,-1.642 v -38.016 q 0,-1.114 0.469,-1.584 0.528,-0.528 1.642,-0.528 h 19.536 q 6.570,0 9.034,2.757 2.522,2.698 2.522,7.04 v 2.698 q 0,2.464 -0.762,4.224 -0.704,1.701 -2.522,2.464 3.168,0.352 5.104,2.581 1.994,2.229 1.994,5.925 v 12.437 q 0,1.114 -0.528,1.642 -0.469,0.469 -1.584,0.469 h -9.093 q -1.114,0 -1.642,-0.469 -0.469,-0.528 -0.469,-1.642 v -8.976 q 0,-1.290 -0.528,-1.877 -0.469,-0.645 -1.701,-0.645 h -8.213 v 11.498 q 0,1.114 -0.528,1.642 -0.469,0.469 -1.584,0.469 z m -33.375,0 h -27.221 q -1.114,0 -1.642,-0.469 -0.469,-0.528 -0.469,-1.642 v -38.016 q 0,-1.114 0.469,-1.584 0.528,-0.528 1.642,-0.528 h 27.221 q 1.114,0 1.584,0.528 0.528,0.469 0.528,1.584 v 6.864 q 0,1.114 -0.528,1.642 -0.469,0.469 -1.584,0.469 h -16.192 v 4.517 h 11.44 q 1.114,0 1.584,0.528 0.528,0.469 0.528,1.584 v 6.277 q 0,1.114 -0.528,1.642 -0.469,0.469 -1.584,0.469 h -11.44 v 5.045 h 16.192 q 1.114,0 1.584,0.528 0.528,0.469 0.528,1.584 v 6.864 q 0,1.114 -0.528,1.642 -0.469,0.469 -1.584,0.469 z m -3.168,-5.866 h -19.184 v -15.194 h 14.432 v -0.586 h -14.432 v -14.725 h 19.184 v -0.586 h -19.770 v 31.68 h 19.770 z m -34.983,5.866 h -29.861 q -1.114,0 -1.642,-0.469 -0.469,-0.528 -0.469,-1.642 v -38.016 q 0,-1.114 0.469,-1.584 0.528,-0.528 1.642,-0.528 h 9.093 q 1.114,0 1.584,0.528 0.528,0.469 0.528,1.584 v 29.04 h 8.037 v -9.504 q 0,-1.114 0.469,-1.584 0.528,-0.528 1.642,-0.528 h 8.506 q 1.114,0 1.584,0.528 0.528,0.469 0.528,1.584 v 18.48 q 0,1.114 -0.528,1.642 -0.469,0.469 -1.584,0.469 z m -25.578,-5.28 h 21.589 v -12.144 h -0.586 v 11.557 h -20.416 V 512.660 h -0.586 z m -15.189,5.28 H 213.848 q -7.333,0 -10.912,-2.933 -3.52,-2.933 -3.52,-9.034 v -18.245 q 0,-6.101 3.52,-9.034 3.578,-2.992 10.912,-2.992 h 14.314 q 1.114,0 1.584,0.528 0.528,0.469 0.528,1.584 v 7.098 q 0,1.114 -0.528,1.642 -0.469,0.469 -1.584,0.469 h -11.792 q -1.818,0 -2.698,0.762 -0.88,0.704 -0.88,2.170 v 13.962 q 0,1.466 0.88,2.170 0.88,0.645 2.698,0.645 h 11.792 q 1.114,0 1.584,0.528 0.528,0.469 0.528,1.584 v 6.981 q 0,1.114 -0.528,1.642 -0.469,0.469 -1.584,0.469 z m -3.226,-5.866 h -9.797 q -5.28,0 -7.04,-1.584 -1.76,-1.584 -1.76,-5.397 v -16.426 q 0,-3.872 1.818,-5.456 1.818,-1.642 6.981,-1.642 h 9.797 v -0.586 h -9.797 q -5.632,0 -7.509,1.76 -1.877,1.76 -1.877,5.925 v 16.426 q 0,4.048 1.818,5.808 1.877,1.76 7.568,1.76 h 9.797 z m -44.825,5.866 h -9.504 q -1.114,0 -1.642,-0.469 -0.469,-0.528 -0.469,-1.642 v -7.509 l -8.976,-12.026 q -1.349,-1.818 -1.818,-3.168 -0.410,-1.349 -0.410,-4.048 v -11.264 q 0,-1.114 0.469,-1.584 0.528,-0.528 1.642,-0.528 h 9.034 q 1.114,0 1.584,0.528 0.528,0.469 0.528,1.584 v 9.621 q 0,0.586 0.058,1.232 0.058,0.645 0.469,1.232 l 2.698,4.224 q 0.293,0.528 0.586,0.762 0.352,0.234 0.821,0.234 h 0.586 q 0.469,0 0.762,-0.234 0.352,-0.234 0.645,-0.762 l 2.698,-4.224 q 0.410,-0.586 0.469,-1.232 0.058,-0.645 0.058,-1.232 v -9.621 q 0,-1.114 0.469,-1.584 0.528,-0.528 1.642,-0.528 h 8.741 q 1.114,0 1.584,0.528 0.528,0.469 0.528,1.584 v 11.264 q 0,2.698 -0.469,4.048 -0.469,1.349 -1.76,3.168 l -8.917,12.085 v 7.450 q 0,1.114 -0.528,1.642 -0.469,0.469 -1.584,0.469 z m -4.048,-15.312 q 1.349,0 2.346,-0.586 1.056,-0.586 1.994,-1.877 l 5.866,-7.92 q 0.704,-0.938 0.762,-2.053 0.117,-1.173 0.117,-2.464 v -6.746 h -0.586 v 6.746 q 0,1.232 -0.117,2.405 -0.117,1.114 -0.704,1.877 l -5.866,7.92 q -0.88,1.114 -1.818,1.642 -0.88,0.469 -1.994,0.469 h -1.584 q -0.997,0 -1.994,-0.469 -0.997,-0.469 -1.76,-1.642 l -5.690,-7.92 q -0.586,-0.88 -0.704,-1.936 -0.117,-1.114 -0.117,-2.346 v -6.746 h -0.586 v 6.746 q 0,1.290 0.117,2.464 0.117,1.173 0.762,2.053 l 5.690,7.92 q 0.938,1.290 1.936,1.877 1.056,0.586 2.346,0.586 h 0.586 v 10.032 h 0.586 v -10.032 z m -26.159,15.312 h -14.314 q -7.333,0 -10.912,-2.933 -3.52,-2.933 -3.52,-9.034 v -18.245 q 0,-6.101 3.52,-9.034 3.578,-2.992 10.912,-2.992 h 14.314 q 1.114,0 1.584,0.528 0.528,0.469 0.528,1.584 v 7.098 q 0,1.114 -0.528,1.642 -0.469,0.469 -1.584,0.469 h -11.792 q -1.818,0 -2.698,0.762 -0.88,0.704 -0.88,2.170 v 13.962 q 0,1.466 0.88,2.170 0.88,0.645 2.698,0.645 h 11.792 q 1.114,0 1.584,0.528 0.528,0.469 0.528,1.584 v 6.981 q 0,1.114 -0.528,1.642 -0.469,0.469 -1.584,0.469 z m -3.226,-5.866 h -9.797 q -5.28,0 -7.04,-1.584 -1.76,-1.584 -1.76,-5.397 v -16.426 q 0,-3.872 1.818,-5.456 1.818,-1.642 6.981,-1.642 h 9.797 v -0.586 h -9.797 q -5.632,0 -7.509,1.76 -1.877,1.76 -1.877,5.925 v 16.426 q 0,4.048 1.818,5.808 1.877,1.76 7.568,1.76 h 9.797 z m -59.222,5.866 q -1.114,0 -1.642,-0.469 -0.469,-0.528 -0.469,-1.642 v -6.981 q 0,-1.114 0.469,-1.584 0.528,-0.528 1.642,-0.528 h 5.808 v -19.712 h -5.808 q -1.114,0 -1.642,-0.469 -0.469,-0.528 -0.469,-1.642 v -7.098 q 0,-1.114 0.469,-1.584 0.528,-0.528 1.642,-0.528 h 24.991 q 1.114,0 1.584,0.528 0.528,0.469 0.528,1.584 v 7.098 q 0,1.114 -0.528,1.642 -0.469,0.469 -1.584,0.469 h -5.690 v 19.712 h 5.690 q 1.114,0 1.584,0.528 0.528,0.469 0.528,1.584 v 6.981 q 0,1.114 -0.528,1.642 -0.469,0.469 -1.584,0.469 z m 21.823,-5.28 v -0.586 h -8.976 v -30.506 h 8.976 V 512.660 H 90.621 v 0.586 h 9.093 v 30.506 h -9.093 v 0.586 z m -40.867,5.28 H 45.881 q -1.114,0 -1.642,-0.469 -0.469,-0.528 -0.469,-1.642 v -38.016 q 0,-1.114 0.469,-1.584 0.528,-0.528 1.642,-0.528 h 18.714 q 5.749,0 8.506,2.229 2.757,2.170 2.757,6.746 v 2.816 q 0,2.464 -0.88,4.048 -0.821,1.525 -2.581,2.288 3.754,0.352 5.573,2.581 1.818,2.229 1.818,6.512 v 5.397 q 0,4.928 -2.816,7.274 -2.757,2.346 -8.565,2.346 z m -18.128,-5.28 h 15.781 q 2.464,0 3.989,-0.410 1.525,-0.469 2.288,-1.232 0.821,-0.762 1.114,-1.818 0.293,-1.114 0.293,-2.405 v -3.754 q 0,-1.466 -0.293,-2.698 -0.234,-1.232 -1.056,-2.112 -0.821,-0.938 -2.346,-1.408 -1.525,-0.528 -3.930,-0.528 2.522,-0.645 3.109,-2.112 0.645,-1.466 0.645,-3.226 v -3.754 q 0,-1.290 -0.293,-2.405 -0.293,-1.114 -1.114,-1.936 -0.821,-0.88 -2.346,-1.349 -1.525,-0.528 -3.930,-0.528 H 50.281 Z m 11.909,-31.093 q 4.4,0 5.749,1.642 1.349,1.642 1.349,3.989 v 3.754 q 0,1.056 -0.234,2.053 -0.176,0.938 -0.938,1.701 -0.704,0.704 -2.112,1.173 -1.408,0.410 -3.813,0.410 H 50.868 v -14.725 z m -5.221,4.106 v 6.336 h 4.986 q 1.114,0 1.642,-0.586 0.586,-0.586 0.586,-1.76 v -1.642 q 0,-1.173 -0.586,-1.76 -0.528,-0.586 -1.642,-0.586 z m 9.152,11.205 q 4.4,0 5.690,1.76 1.349,1.76 1.349,4.4 v 3.754 q 0,2.405 -1.349,3.872 -1.349,1.408 -5.749,1.408 H 50.868 v -15.194 z m -9.152,4.165 v 6.922 h 7.626 q 1.114,0 1.642,-0.586 0.586,-0.586 0.586,-1.76 v -2.288 q 0,-1.173 -0.586,-1.701 -0.528,-0.586 -1.642,-0.586 z"
         id="path2404" />
    </g>
  </g>
  <g id="layer7">
    <path
       d="m 489.738,512.572 c -0.278,0 -0.543,0.109 -0.761,0.273 -0.279,0.209 -0.431,0.572 -0.431,0.917 v 31.035 a 0.488,0.488 0 0 0 0.488,0.488 h 0.587 a 0.488,0.488 0 0 0 0.488,-0.488 v -30.093 l 21.609,24.236 v 5.857 a 0.488,0.488 0 0 0 0.488,0.488 h 0.587 a 0.488,0.488 0 0 0 0.488,-0.488 v -31.679 a 0.488,0.488 0 0 0 -0.488,-0.488 h -0.587 a 0.488,0.488 0 0 0 -0.488,0.488 v 23.472 l -20.736,-23.328 a 0.488,0.488 0 0 0 -0.019,-0.021 c -0.207,-0.207 -0.373,-0.357 -0.542,-0.470 -0.200,-0.133 -0.444,-0.199 -0.681,-0.199 z m -444.707,0.058 a 0.488,0.488 0 0 0 -0.488,0.488 v 31.679 a 0.488,0.488 0 0 0 0.488,0.488 H 60.812 c 1.669,0 3.036,-0.134 4.117,-0.425 a 0.488,0.488 0 0 0 0.017,-0.006 c 1.061,-0.326 1.891,-0.762 2.478,-1.345 0.606,-0.564 1.031,-1.254 1.25,-2.041 a 0.488,0.488 0 0 0 0.002,-0.006 c 0.207,-0.788 0.308,-1.633 0.308,-2.531 v -3.753 c 0,-1.008 -0.101,-1.944 -0.306,-2.806 -0.172,-0.891 -0.564,-1.679 -1.164,-2.326 l -0.003,-0.004 c -0.615,-0.702 -1.477,-1.210 -2.548,-1.542 l -0.003,-0.002 c -0.580,-0.200 -1.250,-0.335 -1.984,-0.425 0.673,-0.416 1.197,-0.919 1.457,-1.566 0.455,-1.040 0.683,-2.183 0.683,-3.412 v -3.753 c 0,-0.897 -0.101,-1.743 -0.308,-2.531 -0.215,-0.820 -0.634,-1.546 -1.236,-2.150 -0.617,-0.658 -1.474,-1.140 -2.539,-1.470 -0.001,-3.8e-4 -0.002,3.8e-4 -0.003,0 -1.091,-0.377 -2.448,-0.554 -4.085,-0.554 z m 40.339,0 a 0.488,0.488 0 0 0 -0.488,0.488 v 0.585 a 0.488,0.488 0 0 0 0.488,0.488 h 8.605 v 29.531 h -8.605 a 0.488,0.488 0 0 0 -0.488,0.488 v 0.585 a 0.488,0.488 0 0 0 0.488,0.488 h 18.656 a 0.488,0.488 0 0 0 0.488,-0.488 v -0.585 a 0.488,0.488 0 0 0 -0.488,-0.488 h -8.488 v -29.531 h 8.488 a 0.488,0.488 0 0 0 0.488,-0.488 v -0.585 a 0.488,0.488 0 0 0 -0.488,-0.488 z m 46.257,0 c -3.805,0 -6.414,0.550 -7.843,1.890 -1.391,1.304 -2.031,3.432 -2.031,6.283 v 16.425 c 0,2.771 0.619,4.856 1.966,6.160 a 0.488,0.488 0 0 0 0.006,0.006 c 1.431,1.341 4.058,1.890 7.902,1.890 h 9.796 a 0.488,0.488 0 0 0 0.488,-0.488 v -0.585 a 0.488,0.488 0 0 0 -0.488,-0.488 h -9.796 c -3.471,0 -5.722,-0.565 -6.714,-1.458 -1.028,-0.925 -1.597,-2.568 -1.597,-5.035 v -16.425 c 0,-2.504 0.586,-4.161 1.650,-5.087 a 0.488,0.488 0 0 0 0.008,-0.006 c 1.041,-0.940 3.264,-1.517 6.654,-1.517 h 9.796 a 0.488,0.488 0 0 0 0.488,-0.488 v -0.585 a 0.488,0.488 0 0 0 -0.488,-0.488 z m 26.746,0 a 0.488,0.488 0 0 0 -0.488,0.488 v 6.746 c 0,0.875 0.039,1.713 0.119,2.513 0.085,0.858 0.372,1.634 0.855,2.292 l 5.687,7.916 a 0.488,0.488 0 0 0 0.002,0.002 c 0.653,0.898 1.339,1.575 2.082,2.011 a 0.488,0.488 0 0 0 0.01,0.006 c 0.777,0.432 1.650,0.648 2.585,0.648 h 0.097 v 9.542 a 0.488,0.488 0 0 0 0.488,0.488 h 0.587 a 0.488,0.488 0 0 0 0.488,-0.488 v -9.552 c 0.934,-0.011 1.783,-0.216 2.507,-0.640 0.780,-0.434 1.493,-1.112 2.148,-2.011 l 0.002,-0.004 5.861,-7.914 0.002,-0.002 c 0.518,-0.692 0.812,-1.476 0.857,-2.312 1.9e-4,-0.002 0.002,-0.004 0.002,-0.006 0.078,-0.793 0.117,-1.623 0.117,-2.490 v -6.746 a 0.488,0.488 0 0 0 -0.488,-0.488 h -0.585 a 0.488,0.488 0 0 0 -0.488,0.488 v 6.746 c 0,0.805 -0.038,1.592 -0.115,2.357 -0.070,0.668 -0.274,1.197 -0.605,1.626 a 0.488,0.488 0 0 0 -0.006,0.008 l -5.861,7.912 c -0.554,0.701 -1.114,1.200 -1.666,1.511 -0.510,0.271 -1.086,0.410 -1.759,0.410 h -1.583 c -0.588,0 -1.177,-0.135 -1.785,-0.421 -0.566,-0.266 -1.086,-0.741 -1.558,-1.466 a 0.488,0.488 0 0 0 -0.013,-0.019 l -5.681,-7.906 c -0.349,-0.524 -0.555,-1.089 -0.625,-1.718 -0.076,-0.723 -0.115,-1.488 -0.115,-2.292 v -6.746 a 0.488,0.488 0 0 0 -0.488,-0.488 z m 51.513,0 c -3.805,0 -6.414,0.550 -7.843,1.890 -1.391,1.304 -2.031,3.432 -2.031,6.283 v 16.425 c 0,2.771 0.619,4.856 1.966,6.160 a 0.488,0.488 0 0 0 0.006,0.006 c 1.431,1.341 4.058,1.890 7.902,1.890 h 9.796 a 0.488,0.488 0 0 0 0.488,-0.488 v -0.585 a 0.488,0.488 0 0 0 -0.488,-0.488 h -9.796 c -3.471,0 -5.720,-0.565 -6.712,-1.458 -1.028,-0.925 -1.597,-2.568 -1.597,-5.035 v -16.425 c 0,-2.504 0.586,-4.161 1.650,-5.087 a 0.488,0.488 0 0 0 0.008,-0.006 c 1.041,-0.941 3.262,-1.517 6.652,-1.517 h 9.796 a 0.488,0.488 0 0 0 0.488,-0.488 v -0.585 a 0.488,0.488 0 0 0 -0.488,-0.488 z m 28.212,0 a 0.488,0.488 0 0 0 -0.488,0.488 v 31.679 a 0.488,0.488 0 0 0 0.488,0.488 h 21.589 a 0.488,0.488 0 0 0 0.488,-0.488 v -12.142 a 0.488,0.488 0 0 0 -0.488,-0.488 h -0.585 a 0.488,0.488 0 0 0 -0.488,0.488 v 11.068 h -19.439 v -30.605 a 0.488,0.488 0 0 0 -0.488,-0.488 z m 40.792,0 a 0.488,0.488 0 0 0 -0.488,0.488 v 31.679 a 0.488,0.488 0 0 0 0.488,0.488 h 19.769 a 0.488,0.488 0 0 0 0.488,-0.488 v -0.585 a 0.488,0.488 0 0 0 -0.488,-0.488 h -18.695 v -14.218 h 13.943 a 0.488,0.488 0 0 0 0.488,-0.488 v -0.585 a 0.488,0.488 0 0 0 -0.488,-0.488 h -13.943 v -13.75 h 18.695 a 0.488,0.488 0 0 0 0.488,-0.488 v -0.585 a 0.488,0.488 0 0 0 -0.488,-0.488 z m 51.503,0 a 0.488,0.488 0 0 0 -0.488,0.488 v 31.679 a 0.488,0.488 0 0 0 0.488,0.488 h 0.585 a 0.488,0.488 0 0 0 0.488,-0.488 v -13.121 h 16.115 c 2.157,0 3.665,0.476 4.595,1.337 a 0.488,0.488 0 0 0 0.008,0.006 c 0.932,0.829 1.419,2.089 1.419,3.916 v 7.861 a 0.488,0.488 0 0 0 0.488,0.488 h 0.585 a 0.488,0.488 0 0 0 0.488,-0.488 v -7.861 c 0,-2.127 -0.632,-3.837 -1.921,-4.998 -1.073,-0.998 -2.596,-1.533 -4.478,-1.695 0.626,-0.465 1.139,-1.026 1.435,-1.742 a 0.488,0.488 0 0 0 0.002,-0.006 c 0.501,-1.253 0.738,-2.799 0.738,-4.640 v -4.048 c 0,-2.006 -0.584,-3.724 -1.757,-5.068 l -0.004,-0.004 c -1.202,-1.414 -3.055,-2.103 -5.414,-2.103 z m 51.578,0 c -1.420,0 -2.549,0.419 -3.208,1.314 -0.579,0.786 -1.087,1.743 -1.529,2.869 l -3.753,9.621 a 0.488,0.488 0 0 0 -0.004,0.01 c -0.321,0.882 -0.583,1.804 -0.783,2.765 a 0.488,0.488 0 0 0 -0.002,0.015 c -0.162,0.932 -0.242,1.957 -0.242,3.076 v 12.496 a 0.488,0.488 0 0 0 0.488,0.488 h 0.587 a 0.488,0.488 0 0 0 0.488,-0.488 v -9.601 h 21.902 v 9.601 a 0.488,0.488 0 0 0 0.488,0.488 h 0.587 a 0.488,0.488 0 0 0 0.488,-0.488 v -12.496 c 0,-1.123 -0.102,-2.154 -0.306,-3.093 -0.161,-0.958 -0.399,-1.880 -0.720,-2.763 a 0.488,0.488 0 0 0 -0.01,-0.023 l -4.046,-9.558 -0.002,-0.002 c -0.478,-1.156 -1.000,-2.123 -1.576,-2.906 -0.617,-0.898 -1.713,-1.324 -3.095,-1.324 z m 43.558,0 c -3.805,0 -6.414,0.550 -7.843,1.890 -1.391,1.304 -2.031,3.432 -2.031,6.283 v 16.425 c 0,2.771 0.619,4.856 1.966,6.160 a 0.488,0.488 0 0 0 0.006,0.006 c 1.431,1.341 4.058,1.890 7.902,1.890 h 9.796 a 0.488,0.488 0 0 0 0.488,-0.488 v -0.585 a 0.488,0.488 0 0 0 -0.488,-0.488 h -9.796 c -3.471,0 -5.722,-0.565 -6.714,-1.458 -1.028,-0.925 -1.597,-2.568 -1.597,-5.035 v -16.425 c 0,-2.504 0.586,-4.161 1.650,-5.087 a 0.488,0.488 0 0 0 0.008,-0.006 c 1.041,-0.940 3.264,-1.517 6.654,-1.517 h 9.796 a 0.488,0.488 0 0 0 0.488,-0.488 v -0.585 a 0.488,0.488 0 0 0 -0.488,-0.488 z m 26.160,0 a 0.488,0.488 0 0 0 -0.488,0.488 v 0.585 a 0.488,0.488 0 0 0 0.488,0.488 h 8.603 v 29.531 h -8.603 a 0.488,0.488 0 0 0 -0.488,0.488 v 0.585 a 0.488,0.488 0 0 0 0.488,0.488 h 18.656 a 0.488,0.488 0 0 0 0.488,-0.488 v -0.585 a 0.488,0.488 0 0 0 -0.488,-0.488 h -8.488 v -29.531 h 8.488 a 0.488,0.488 0 0 0 0.488,-0.488 v -0.585 a 0.488,0.488 0 0 0 -0.488,-0.488 z m 90.544,0 c -3.805,0 -6.414,0.550 -7.843,1.890 -1.391,1.304 -2.031,3.432 -2.031,6.283 v 16.425 c 0,1.401 0.137,2.617 0.427,3.652 a 0.488,0.488 0 0 0 0.008,0.023 c 0.341,1.023 0.950,1.892 1.800,2.572 a 0.488,0.488 0 0 0 0.011,0.01 c 0.862,0.646 2.006,1.095 3.423,1.378 1.417,0.283 3.203,0.419 5.375,0.419 h 11.675 a 0.488,0.488 0 0 0 0.488,-0.488 v -11.791 a 0.488,0.488 0 0 0 -0.488,-0.488 H 554.5 a 0.488,0.488 0 0 0 -0.488,0.488 v 10.716 h -10.599 c -3.901,0 -6.482,-0.563 -7.673,-1.478 l -0.002,-0.002 c -1.178,-0.937 -1.808,-2.558 -1.808,-5.013 v -16.425 c 0,-2.504 0.586,-4.161 1.650,-5.087 a 0.488,0.488 0 0 0 0.008,-0.006 c 1.041,-0.940 3.264,-1.517 6.654,-1.517 h 10.148 a 0.488,0.488 0 0 0 0.488,-0.488 v -0.585 a 0.488,0.488 0 0 0 -0.488,-0.488 z m -496.132,1.562 h 10.833 c 2.872,0 4.638,0.571 5.373,1.464 0.826,1.006 1.236,2.208 1.236,3.679 v 3.753 c 0,0.667 -0.075,1.316 -0.222,1.943 a 0.488,0.488 0 0 0 -0.003,0.021 c -0.098,0.524 -0.352,0.994 -0.802,1.445 -0.390,0.390 -1.025,0.755 -1.912,1.052 -0.866,0.251 -2.096,0.388 -3.667,0.388 H 46.107 Z m 285.365,0 h 12.300 c 1.983,0 3.340,0.528 4.207,1.533 a 0.488,0.488 0 0 0 0.006,0.008 c 0.931,1.038 1.400,2.365 1.400,4.072 v 4.107 c 0,2.088 -0.403,3.648 -1.144,4.707 -0.691,0.988 -2.122,1.550 -4.468,1.550 h -12.300 z m 50.503,0 h 5.75 c 0.990,0 1.567,0.281 1.939,0.839 a 0.488,0.488 0 0 0 0.008,0.01 c 0.442,0.626 0.878,1.438 1.298,2.431 a 0.488,0.488 0 0 0 0,0.002 l 4.039,9.537 c 0.263,0.753 0.470,1.565 0.623,2.439 a 0.488,0.488 0 0 0 0.004,0.019 c 0.187,0.860 0.281,1.804 0.281,2.830 v 1.330 h -21.902 v -1.330 c 0,-1.029 0.076,-1.976 0.226,-2.841 0.191,-0.876 0.418,-1.692 0.683,-2.449 2e-4,-5.6e-4 -1.9e-4,-0.001 0,-0.002 l 3.748,-9.601 0.002,-0.004 c 0.379,-0.949 0.792,-1.738 1.232,-2.361 a 0.488,0.488 0 0 0 0.008,-0.01 c 0.365,-0.547 0.983,-0.839 2.058,-0.839 z m -335.869,15.312 h 14.763 c 2.868,0 4.593,0.600 5.296,1.560 a 0.488,0.488 0 0 0 0.005,0.008 c 0.827,1.079 1.25,2.426 1.25,4.103 v 3.753 c 0,1.509 -0.410,2.658 -1.216,3.537 -0.717,0.746 -2.515,1.255 -5.394,1.255 H 46.107 Z"
       id="path2698"
       style="fill:#ffffff" />
  </g>
</svg>
